<?xml version="1.0" encoding="UTF-8"?>
<svg id="Layer_1" xmlns="http://www.w3.org/2000/svg" version="1.1" viewBox="0 0 455.28 69.2">
  <!-- Generator: Adobe Illustrator 29.3.1, SVG Export Plug-In . SVG Version: 2.1.0 Build 151)  -->
  <defs>
    <style>
      .st0 {
        fill: none;
      }

      .st1 {
        fill: #dfac82;
      }

      .st2 {
        fill: #ffaba6;
      }

      .st3 {
        fill: #17171c;
      }

      .st4 {
        fill: #055273;
      }

      .st5 {
        fill: #6ae8f8;
      }

      .st6 {
        fill: #edc2db;
      }

      .st7 {
        fill: #f4d5a0;
      }

      .st8 {
        fill: #858585;
      }

      .st9 {
        fill: #944247;
      }
    </style>
  </defs>
  <polygon class="st0" points="274.04 64.55 274.04 64.55 274.04 64.55 274.04 64.55"/>
  <g>
    <path class="st3" d="M29.98,40.92h22.95c-.27,12.45-8.27,19.48-19.84,19.48-12.81,0-21.17-10.23-21.17-25.53s8.18-25.53,20.73-25.53c9.87,0,15.92,5.16,18.68,12.81h12.01C59.6,8.18,48.75,0,32.65,0h-.01C13.52,0,0,13.88,0,34.87s14.23,34.87,31.22,34.87c13.79,0,20.73-8.99,23.39-17.7v16.63h9.7V31.4H29.98v9.52Z"/>
    <path class="st3" d="M87.53,32.38v-11.65h-11.03v47.95h11.12v-26.86c0-8.36,4.18-11.21,12.81-11.21h3.02v-10.94c-9.25,0-14.05,5.51-15.92,12.72Z"/>
    <path class="st3" d="M144.55,32.02c-2.14-6.4-7.74-12.36-16.46-12.36-11.65,0-20.1,10.41-20.1,24.99s8.36,25.09,20.1,25.09c7.29,0,13.7-4.71,16.46-11.3v10.23h11.03V20.72h-11.03v11.3ZM132.1,61.91c-8.27,0-12.81-6.67-12.81-17.26s4.54-17.17,12.81-17.17,12.81,6.67,12.81,17.17-4.54,17.26-12.81,17.26Z"/>
    <path class="st3" d="M194.46,19.66c-8.27,0-12.99,4.98-15.21,10.85v-9.79h-11.03v47.95h11.12v-27.84c0-9.16,3.91-13.25,10.14-13.25s10.14,4,10.14,13.08v28.02h11.12v-30.15c0-10.68-5.25-18.86-16.28-18.86Z"/>
    <path class="st3" d="M244.27,60.4c-4.09,0-6.49-1.33-6.49-5.96v-25.53h11.39v-8.18h-11.39v-11.39h-11.12v11.39h-9.43v8.18h9.43v26.06c0,9.34,6.85,13.7,15.74,13.7h6.94v-8.27h-5.07Z"/>
  </g>
  <g>
    <path class="st3" d="M361.25,19.66c-8.27,0-12.99,4.98-15.21,10.85v-9.79h-11.03v47.95h11.12v-27.84c0-9.16,3.91-13.25,10.14-13.25s10.14,4,10.14,13.08v28.02h11.12v-30.15c0-10.68-5.25-18.86-16.28-18.86Z"/>
    <path class="st3" d="M410.53,19.66c-14.41,0-23.57,10.32-23.57,24.99s8.9,25.09,23.57,25.09c11.21,0,19.3-4.98,22.33-15.21h-11.3c-1.69,4.63-4.8,7.38-10.94,7.38-6.76,0-11.47-4.71-12.36-13.96h35.4c.18-1.25.27-2.49.27-3.56,0-14.94-9.25-24.73-23.39-24.73ZM398.35,40.21c1.16-8.63,5.69-12.72,12.18-12.72,6.85,0,11.48,5.07,12.01,12.72h-24.19Z"/>
    <path class="st3" d="M445.28,5.68c-5.52,0-10,4.5-10,10s4.48,10,10,10,10-4.5,10-10h0c0-5.51-4.48-10.01-10-10.01ZM445.28,23.64c-4.43,0-7.96-3.55-7.96-7.96s3.53-7.98,7.96-7.98,7.96,3.58,7.96,7.98-3.55,7.96-7.96,7.96Z"/>
    <path class="st3" d="M450.05,13.64c0-2.17-1.7-3.5-4.45-3.5h-4.45v11.17h2.39v-4.19h1.83l2.24,4.19h2.68l-2.55-4.5c1.48-.53,2.33-1.63,2.33-3.16ZM445.58,15.17h-2.04v-3.09h2.04c1.24,0,2.02.56,2.02,1.56s-.78,1.53-2.02,1.53Z"/>
  </g>
  <path class="st7" d="M291.33,0h0s-.01,0-.01,0c-6.3,0-12.19,1.71-17.28,4.66h0s5.55,9.61,5.55,9.61c3.46-2,7.46-3.16,11.74-3.16h0s0,0,0,0V0h0Z"/>
  <path class="st2" d="M308.62,4.66h0s0,0,0,0h0s0,0,0,0h0C303.53,1.71,297.63,0,291.33,0v11.1c4.28,0,8.28,1.16,11.74,3.16h0s0,0,0,0c3.56,2.06,6.53,5.03,8.6,8.6l9.61-5.55s0,0,0,0c0,0,0,0,0,0h0c-3.04-5.25-7.41-9.62-12.66-12.65Z"/>
  <polygon class="st6" points="325.93 34.6 325.93 34.6 325.93 34.6 325.93 34.6 325.93 34.6 325.93 34.6"/>
  <path class="st6" d="M325.93,34.6c0-6.3-1.71-12.2-4.66-17.29,0,0,0,0,0,0,0,0,0,0,0,0l-9.61,5.55h0c2,3.46,3.16,7.46,3.16,11.74h11.1s0,0,0,0Z"/>
  <polygon class="st4" points="274.04 64.55 274.04 64.55 274.04 64.55 274.04 64.55"/>
  <path class="st4" d="M308.62,64.54l-5.55-9.61c-3.46,2-7.46,3.16-11.74,3.16h0s0,0,0,0c-4.28,0-8.28-1.16-11.74-3.16h0c-3.57-2.06-6.53-5.03-8.6-8.59l-9.61,5.55c3.04,5.25,7.41,9.62,12.66,12.65h0s0,0,0,0h0s0,0,0,0h0s0,0,0,0c5.09,2.94,10.98,4.66,17.29,4.66h0s0,0,0,0c6.3,0,12.2-1.71,17.29-4.66Z"/>
  <line class="st8" x1="274.04" y1="64.55" x2="274.04" y2="64.55"/>
  <path class="st5" d="M325.93,34.6h-11.1c0,4.28-1.16,8.28-3.16,11.74h0s0,0,0,0c-2.06,3.56-5.03,6.53-8.59,8.6l5.55,9.61c5.25-3.04,9.62-7.41,12.65-12.66h0c2.94-5.09,4.66-10.98,4.66-17.29Z"/>
  <path class="st1" d="M279.59,14.26l-5.32-9.22-.22-.39h0c-5.25,3.04-9.62,7.41-12.66,12.66l9.61,5.55c2.06-3.57,5.03-6.53,8.6-8.6h0Z"/>
  <path class="st9" d="M267.83,34.6h0,0c0-4.28,1.16-8.28,3.16-11.74l-9.61-5.55c-2.94,5.09-4.66,10.98-4.66,17.29h0s0,0,0,0c0,6.31,1.71,12.2,4.66,17.29l9.61-5.55c-2-3.46-3.16-7.46-3.17-11.74Z"/>
</svg>