<svg width="151" height="73" viewBox="0 0 151 73" fill="none" xmlns="http://www.w3.org/2000/svg"><g clip-path="url(#clip0_8366_27953)"><path d="M34.3026 24.8157L27.5173 53.9943H20.1353L11.2071 19.02H16.5917L24.1265 48.9444L31.0609 19.02H37.5988L44.5333 48.9444L52.0135 19.02H57.3981L48.5172 53.9943H41.0843L34.3026 24.8157Z" fill="#292929"></path><path fill-rule="evenodd" clip-rule="evenodd" d="M55.7791 46.8488C55.7791 41.9881 59.9522 39.2704 68.2983 38.7065L72.8352 38.3572V37.5604C72.8352 35.4284 72.3695 33.9113 71.4381 33.0163C70.5394 32.0849 69.226 31.6156 67.4979 31.6156C65.9371 31.6156 64.6237 32.0158 63.5577 32.8162C62.4917 33.6129 61.8441 34.7153 61.6112 36.116H56.525C56.9579 33.4856 58.1876 31.4045 60.2141 29.8728C62.2734 28.3084 64.7365 27.5262 67.5997 27.5262C74.5851 27.5262 78.0742 31.1244 78.0742 38.3208V46.1139C78.0742 47.6783 78.1906 49.1627 78.4235 50.5598C78.6563 51.9569 78.9401 53.1066 79.2712 54.0088H74.1849C73.7847 52.9428 73.5373 51.6767 73.4355 50.2105C71.8383 53.0775 69.0296 54.5073 65.0057 54.5073C63.0774 54.5073 61.4148 54.1762 60.0177 53.5068C58.6206 52.8082 57.5582 51.8732 56.827 50.709C56.1284 49.5411 55.7791 48.2604 55.7791 46.8634L55.7864 46.8561L55.7791 46.8488ZM61.0182 46.6996C61.0182 47.8348 61.4657 48.7807 62.3643 49.5447C63.263 50.3088 64.5764 50.6944 66.3045 50.6944C68.3638 50.6944 69.961 50.0978 71.0924 48.8971C72.2567 47.6638 72.8388 46.1357 72.8388 44.3021V42.1046L69.2988 42.4029C66.3737 42.603 64.2635 43.0359 62.961 43.7017C61.6658 44.3348 61.0146 45.3353 61.0146 46.6996H61.0182Z" fill="#292929"></path><path d="M97.7752 28.0137V21.9342H103.011V28.0101H107.697V32.2049H103.011V46.5432C103.011 47.8093 103.294 48.7261 103.858 49.2901C104.422 49.8212 105.255 50.0868 106.351 50.0868C106.583 50.0868 107.031 50.0541 107.697 49.9886V53.987C106.434 54.1216 105.554 54.1871 105.055 54.1871C102.661 54.1871 100.85 53.6232 99.6162 52.4881C98.3865 51.3202 97.7716 49.5047 97.7716 47.0416V32.2013H88.9925V46.5396C88.9925 47.8057 89.2763 48.7225 89.8403 49.2864C90.4042 49.8176 91.2373 50.0832 92.3324 50.0832C92.5653 50.0832 93.0128 50.0505 93.6786 49.985V53.9834C92.4161 54.118 91.5357 54.1835 91.0372 54.1835C88.6433 54.1835 86.8314 53.6196 85.5981 52.4844C84.3684 51.3166 83.7535 49.5011 83.7535 47.038V32.194H80.0134V27.9992H83.7535V21.9342H88.9925V28.0101H97.7716L97.7752 28.0137Z" fill="#292929"></path><path d="M111.79 40.2527C113.085 41.3187 114.715 42.0354 116.676 42.3993L121.715 43.3452C122.944 43.578 123.876 43.9273 124.509 44.3966C125.175 44.8296 125.506 45.5645 125.506 46.5941C125.506 47.762 125.022 48.6934 124.058 49.3919C123.126 50.0577 121.864 50.3925 120.267 50.3925C118.67 50.3925 117.393 50.0614 116.327 49.3919C115.297 48.7261 114.682 47.7111 114.482 46.3431H109.243C109.643 48.9735 110.84 50.9891 112.834 52.3898C114.86 53.7906 117.338 54.4891 120.267 54.4891C123.196 54.4891 125.786 53.7578 127.751 52.2916C129.744 50.7927 130.741 48.7953 130.741 46.2958C130.741 44.1638 130.126 42.5484 128.897 41.4497C127.7 40.3146 126.004 39.5687 123.81 39.2013L118.72 38.2553C117.622 38.0552 116.741 37.7569 116.075 37.3567C115.41 36.9565 115.079 36.2543 115.079 35.2574C115.079 34.155 115.526 33.2746 116.425 32.6124C117.356 31.9466 118.535 31.6119 119.965 31.6119C121.395 31.6119 122.457 31.9102 123.356 32.5106C124.254 33.0745 124.804 33.9258 125 35.0573H130.239C129.941 32.6925 128.791 30.8442 126.797 29.5127C124.836 28.1774 122.541 27.5153 119.91 27.5153C118.117 27.5153 116.454 27.8318 114.922 28.4612C113.394 29.0943 112.164 30.0111 111.233 31.2081C110.302 32.4087 109.836 33.8385 109.836 35.5048C109.836 37.5713 110.484 39.154 111.782 40.2491H111.793L111.79 40.2527Z" fill="#292929"></path><path d="M134.271 30.6267C133.487 30.6267 132.763 30.4427 132.099 30.0747C131.443 29.7067 130.919 29.1947 130.527 28.5387C130.143 27.8747 129.951 27.1307 129.951 26.3067C129.951 25.4827 130.143 24.7427 130.527 24.0867C130.919 23.4227 131.443 22.9067 132.099 22.5387C132.763 22.1707 133.487 21.9867 134.271 21.9867C135.055 21.9867 135.775 22.1707 136.431 22.5387C137.095 22.9067 137.619 23.4227 138.003 24.0867C138.395 24.7427 138.591 25.4827 138.591 26.3067C138.591 27.1307 138.395 27.8747 138.003 28.5387C137.619 29.1947 137.095 29.7067 136.431 30.0747C135.775 30.4427 135.055 30.6267 134.271 30.6267ZM130.503 26.3067C130.503 27.0347 130.671 27.6907 131.007 28.2747C131.351 28.8507 131.807 29.3027 132.375 29.6307C132.951 29.9587 133.583 30.1227 134.271 30.1227C134.951 30.1227 135.579 29.9587 136.155 29.6307C136.731 29.3027 137.187 28.8507 137.523 28.2747C137.859 27.6907 138.027 27.0347 138.027 26.3067C138.027 25.5787 137.859 24.9267 137.523 24.3507C137.187 23.7667 136.731 23.3107 136.155 22.9827C135.579 22.6547 134.951 22.4907 134.271 22.4907C133.583 22.4907 132.951 22.6547 132.375 22.9827C131.807 23.3107 131.351 23.7667 131.007 24.3507C130.671 24.9267 130.503 25.5787 130.503 26.3067ZM132.795 23.9787H134.127C134.703 23.9787 135.159 24.0907 135.495 24.3147C135.831 24.5387 135.999 24.8827 135.999 25.3467C135.999 25.6987 135.899 25.9867 135.699 26.2107C135.499 26.4267 135.219 26.5747 134.859 26.6547L136.095 28.6347H135.363L134.211 26.7267H134.127H133.455V28.6347H132.795V23.9787ZM134.127 26.1987C134.511 26.1987 134.807 26.1347 135.015 26.0067C135.231 25.8787 135.339 25.6587 135.339 25.3467C135.339 25.0347 135.231 24.8187 135.015 24.6987C134.807 24.5707 134.511 24.5067 134.127 24.5067H133.455V26.1987H134.127Z" fill="black"></path></g><defs><clipPath id="clip0_8366_27953"><rect width="150.793" height="72.604" fill="white"></rect></clipPath></defs></svg>