<svg width="151" height="73" viewBox="0 0 151 73" fill="none" xmlns="http://www.w3.org/2000/svg"><g clip-path="url(#clip0_8366_27964)"><path d="M-3.05176e-05 8.37739C-3.05176e-05 3.75237 3.75234 0 8.37736 0C13.0024 0 16.7547 3.75237 16.7547 8.37739L16.7547 30.7171C16.7547 35.3421 13.0024 39.0945 8.37736 39.0945C3.75234 39.0945 -3.05176e-05 35.3421 -3.05176e-05 30.7171L-3.05176e-05 8.37739Z" fill="#292929"></path><path d="M44.6794 8.37739C44.6794 3.75237 48.4282 0 53.0567 0C57.6852 0 61.4341 3.75237 61.4341 8.37739L61.4341 30.7171C61.4341 35.3421 57.6852 39.0945 53.0567 39.0945C48.4282 39.0945 44.6794 35.3421 44.6794 30.7171L44.6794 8.37739Z" fill="#292929"></path><path d="M89.3587 8.37739C89.3587 3.75237 93.1076 0 97.7361 0C102.365 0 106.114 3.75237 106.114 8.37739L106.114 30.7171C106.114 35.3421 102.365 39.0945 97.7361 39.0945C93.1076 39.0945 89.3587 35.3421 89.3587 30.7171L89.3587 8.37739Z" fill="#292929"></path><path d="M134.041 8.37739C134.041 3.75237 137.79 0 142.419 0C147.047 0 150.796 3.75237 150.796 8.37739L150.796 30.7171C150.796 35.3421 147.047 39.0945 142.419 39.0945C137.79 39.0945 134.041 35.3421 134.041 30.7171L134.041 8.37739Z" fill="#292929"></path><path d="M22.3428 41.8869C22.3428 37.2619 26.0952 33.5096 30.7202 33.5096C35.3452 33.5096 39.0976 37.2619 39.0976 41.8869L39.0976 64.2266C39.0976 68.8551 35.3452 72.604 30.7202 72.604C26.0952 72.604 22.3428 68.8551 22.3428 64.2266L22.3428 41.8869Z" fill="#292929"></path><path d="M67.0222 41.8869C67.0222 37.2619 70.7711 33.5096 75.3996 33.5096C80.0281 33.5096 83.777 37.2619 83.777 41.8869L83.777 64.2266C83.777 68.8551 80.0281 72.604 75.3996 72.604C70.7711 72.604 67.0222 68.8551 67.0222 64.2266L67.0222 41.8869Z" fill="#292929"></path><path d="M111.7 41.8869C111.7 37.2619 115.449 33.5096 120.077 33.5096C124.706 33.5096 128.455 37.2619 128.455 41.8869L128.455 64.2266C128.455 68.8551 124.706 72.604 120.077 72.604C115.449 72.604 111.7 68.8551 111.7 64.2266L111.7 41.8869Z" fill="#292929"></path><path d="M142.228 71.3784C139.864 71.3784 137.908 69.5904 137.908 67.0584C137.908 64.5264 139.864 62.7384 142.228 62.7384C144.592 62.7384 146.548 64.5264 146.548 67.0584C146.548 69.5904 144.592 71.3784 142.228 71.3784ZM138.46 67.0584C138.46 69.2904 140.164 70.8744 142.228 70.8744C144.28 70.8744 145.984 69.2904 145.984 67.0584C145.984 64.8264 144.28 63.2424 142.228 63.2424C140.164 63.2424 138.46 64.8264 138.46 67.0584ZM140.752 69.3864V64.7304H142.084C143.188 64.7304 143.956 65.1384 143.956 66.0984C143.956 66.8304 143.512 67.2504 142.816 67.4064L144.052 69.3864H143.32L142.168 67.4784H142.084H141.412V69.3864H140.752ZM141.412 66.9504H142.084C142.792 66.9504 143.296 66.7584 143.296 66.0984C143.296 65.4384 142.792 65.2584 142.084 65.2584H141.412V66.9504Z" fill="#292929"></path></g><defs><clipPath id="clip0_8366_27964"><rect width="150.793" height="72.604" fill="white"></rect></clipPath></defs></svg>