<svg width="70" height="9" viewBox="0 0 70 9" fill="none" xmlns="http://www.w3.org/2000/svg">
<path d="M5.01585 2.62935C4.98176 2.2856 4.83545 2.01855 4.57693 1.82821C4.3184 1.63787 3.96755 1.5427 3.52437 1.5427C3.22323 1.5427 2.96897 1.58532 2.76159 1.67054C2.5542 1.75293 2.39511 1.86799 2.28431 2.01571C2.17636 2.16344 2.12238 2.33105 2.12238 2.51855C2.1167 2.6748 2.14937 2.81117 2.22039 2.92765C2.29426 3.04412 2.39511 3.14498 2.52295 3.2302C2.65079 3.31259 2.79852 3.38503 2.96613 3.44753C3.13374 3.50719 3.31272 3.55833 3.50306 3.60094L4.28715 3.78844C4.66784 3.87367 5.01727 3.9873 5.33545 4.12935C5.65363 4.2714 5.9292 4.44611 6.16215 4.6535C6.39511 4.86088 6.57551 5.1052 6.70335 5.38645C6.83403 5.6677 6.90079 5.99015 6.90363 6.35378C6.90079 6.88787 6.76443 7.35094 6.49454 7.74299C6.22749 8.13219 5.84113 8.43475 5.33545 8.65066C4.83261 8.86373 4.22607 8.97026 3.51585 8.97026C2.8113 8.97026 2.19767 8.8623 1.67494 8.6464C1.15505 8.43049 0.748802 8.11088 0.456188 7.68759C0.166415 7.26145 0.0144265 6.73446 0.000221938 6.10662H1.78573C1.80562 6.39924 1.88943 6.64355 2.03715 6.83958C2.18772 7.03276 2.38801 7.17907 2.63801 7.2785C2.89085 7.37509 3.17636 7.42338 3.49454 7.42338C3.80704 7.42338 4.07835 7.37793 4.30846 7.28702C4.54142 7.19611 4.72181 7.06969 4.84965 6.90776C4.97749 6.74583 5.04142 6.55975 5.04142 6.34952C5.04142 6.1535 4.98318 5.98873 4.8667 5.8552C4.75306 5.72168 4.58545 5.60804 4.36386 5.51429C4.14511 5.42054 3.87664 5.33532 3.55846 5.25861L2.60818 5.01997C1.87238 4.841 1.29142 4.56117 0.865279 4.18049C0.439142 3.7998 0.227495 3.28702 0.230336 2.64213C0.227495 2.11372 0.36812 1.65208 0.652211 1.25719C0.939142 0.862305 1.33261 0.554066 1.83261 0.332475C2.33261 0.110884 2.90079 8.84533e-05 3.53715 8.84533e-05C4.18488 8.84533e-05 4.75022 0.110884 5.23318 0.332475C5.71897 0.554066 6.09681 0.862305 6.3667 1.25719C6.63659 1.65208 6.77579 2.10946 6.78431 2.62935H5.01585ZM11.068 8.97452C10.3976 8.97452 9.82089 8.83248 9.33794 8.54838C8.85782 8.26145 8.4885 7.86373 8.22998 7.3552C7.9743 6.84668 7.84646 6.26145 7.84646 5.59952C7.84646 4.92907 7.97572 4.341 8.23424 3.83532C8.49561 3.32679 8.86634 2.93049 9.34646 2.6464C9.82657 2.35946 10.3976 2.216 11.0595 2.216C11.6305 2.216 12.1305 2.31969 12.5595 2.52708C12.9885 2.73446 13.328 3.02566 13.578 3.40066C13.828 3.77566 13.9658 4.216 13.9913 4.72168H12.2783C12.23 4.39497 12.1021 4.13219 11.8948 3.93333C11.6902 3.73162 11.4217 3.63077 11.0894 3.63077C10.8081 3.63077 10.5624 3.70748 10.3521 3.86088C10.1448 4.01145 9.98282 4.23162 9.86634 4.5214C9.74987 4.81117 9.69163 5.16202 9.69163 5.57395C9.69163 5.99157 9.74845 6.34668 9.86208 6.63929C9.97856 6.93191 10.1419 7.15492 10.3521 7.30833C10.5624 7.46174 10.8081 7.53844 11.0894 7.53844C11.2967 7.53844 11.4828 7.49583 11.6476 7.4106C11.8152 7.32537 11.953 7.20179 12.0609 7.03986C12.1717 6.87509 12.2442 6.67765 12.2783 6.44753H13.9913C13.9629 6.94753 13.8266 7.38787 13.5823 7.76855C13.3408 8.1464 13.007 8.44185 12.5808 8.65492C12.1547 8.86799 11.6504 8.97452 11.068 8.97452ZM17.0201 8.97026C16.6025 8.97026 16.2303 8.89782 15.9036 8.75293C15.5769 8.6052 15.3184 8.38787 15.1281 8.10094C14.9406 7.81117 14.8468 7.45037 14.8468 7.01855C14.8468 6.65492 14.9136 6.34952 15.0471 6.10236C15.1806 5.8552 15.3624 5.65634 15.5926 5.50577C15.8227 5.3552 16.084 5.24157 16.3766 5.16486C16.6721 5.08816 16.9818 5.03418 17.3056 5.00293C17.6863 4.96316 17.9931 4.92623 18.2261 4.89213C18.459 4.8552 18.6281 4.80123 18.7332 4.7302C18.8383 4.65918 18.8908 4.55407 18.8908 4.41486V4.38929C18.8908 4.11941 18.8056 3.9106 18.6352 3.76287C18.4676 3.61515 18.2289 3.54128 17.9193 3.54128C17.5926 3.54128 17.3326 3.61372 17.1394 3.75861C16.9462 3.90066 16.8184 4.07963 16.7559 4.29554L15.0769 4.15918C15.1622 3.76145 15.3298 3.4177 15.5798 3.12793C15.8298 2.83532 16.1522 2.61088 16.5471 2.45463C16.9448 2.29554 17.4051 2.216 17.9278 2.216C18.2914 2.216 18.6394 2.25861 18.9718 2.34384C19.307 2.42907 19.6039 2.56117 19.8624 2.74015C20.1238 2.91912 20.3298 3.14924 20.4803 3.43049C20.6309 3.7089 20.7062 4.0427 20.7062 4.43191V8.84668H18.9846V7.93901H18.9335C18.8283 8.14355 18.6877 8.32395 18.5116 8.4802C18.3354 8.63361 18.1238 8.75435 17.8766 8.84242C17.6295 8.92765 17.344 8.97026 17.0201 8.97026ZM17.54 7.71742C17.807 7.71742 18.0428 7.66486 18.2474 7.55975C18.4519 7.45179 18.6124 7.30691 18.7289 7.12509C18.8454 6.94327 18.9036 6.7373 18.9036 6.50719V5.81259C18.8468 5.84952 18.7687 5.88361 18.6693 5.91486C18.5727 5.94327 18.4633 5.97026 18.3411 5.99583C18.219 6.01855 18.0968 6.03986 17.9747 6.05975C17.8525 6.07679 17.7417 6.09242 17.6423 6.10662C17.4292 6.13787 17.2431 6.18759 17.084 6.25577C16.9249 6.32395 16.8014 6.41628 16.7133 6.53276C16.6252 6.6464 16.5812 6.78844 16.5812 6.9589C16.5812 7.20605 16.6707 7.39498 16.8497 7.52566C17.0315 7.6535 17.2616 7.71742 17.54 7.71742ZM23.9299 5.06259V8.84668H22.1146V2.30122H23.8447V3.45605H23.9214C24.0663 3.07537 24.3092 2.77424 24.6501 2.55265C24.991 2.32821 25.4043 2.216 25.8901 2.216C26.3447 2.216 26.741 2.31543 27.0791 2.51429C27.4171 2.71316 27.6799 2.99725 27.8674 3.36657C28.0549 3.73304 28.1487 4.17054 28.1487 4.67907V8.84668H26.3333V5.00293C26.3362 4.60236 26.2339 4.28986 26.0265 4.06543C25.8191 3.83816 25.5336 3.72452 25.17 3.72452C24.9256 3.72452 24.7097 3.77708 24.5222 3.88219C24.3376 3.9873 24.1927 4.14071 24.0876 4.34242C23.9853 4.54128 23.9328 4.78134 23.9299 5.06259ZM29.6135 0.119407H31.8891L34.2925 5.98304H34.3948L36.7982 0.119407H39.0737V8.84668H37.284V3.16628H37.2115L34.953 8.80407H33.7342L31.4757 3.14497H31.4033V8.84668H29.6135V0.119407ZM42.4264 8.97026C42.0087 8.97026 41.6366 8.89782 41.3099 8.75293C40.9832 8.6052 40.7247 8.38787 40.5343 8.10094C40.3468 7.81117 40.2531 7.45037 40.2531 7.01855C40.2531 6.65492 40.3198 6.34952 40.4533 6.10236C40.5869 5.8552 40.7687 5.65634 40.9988 5.50577C41.2289 5.3552 41.4903 5.24157 41.7829 5.16486C42.0783 5.08816 42.388 5.03418 42.7119 5.00293C43.0926 4.96316 43.3994 4.92623 43.6323 4.89213C43.8653 4.8552 44.0343 4.80123 44.1394 4.7302C44.2445 4.65918 44.2971 4.55407 44.2971 4.41486V4.38929C44.2971 4.11941 44.2119 3.9106 44.0414 3.76287C43.8738 3.61515 43.6352 3.54128 43.3255 3.54128C42.9988 3.54128 42.7389 3.61372 42.5457 3.75861C42.3525 3.90066 42.2247 4.07963 42.1622 4.29554L40.4832 4.15918C40.5684 3.76145 40.736 3.4177 40.986 3.12793C41.236 2.83532 41.5585 2.61088 41.9533 2.45463C42.3511 2.29554 42.8113 2.216 43.334 2.216C43.6977 2.216 44.0457 2.25861 44.3781 2.34384C44.7133 2.42907 45.0102 2.56117 45.2687 2.74015C45.5301 2.91912 45.736 3.14924 45.8866 3.43049C46.0372 3.7089 46.1124 4.0427 46.1124 4.43191V8.84668H44.3908V7.93901H44.3397C44.2346 8.14355 44.094 8.32395 43.9178 8.4802C43.7417 8.63361 43.5301 8.75435 43.2829 8.84242C43.0357 8.92765 42.7502 8.97026 42.4264 8.97026ZM42.9462 7.71742C43.2133 7.71742 43.4491 7.66486 43.6536 7.55975C43.8582 7.45179 44.0187 7.30691 44.1352 7.12509C44.2516 6.94327 44.3099 6.7373 44.3099 6.50719V5.81259C44.2531 5.84952 44.1749 5.88361 44.0755 5.91486C43.9789 5.94327 43.8695 5.97026 43.7474 5.99583C43.6252 6.01855 43.5031 6.03986 43.3809 6.05975C43.2587 6.07679 43.1479 6.09242 43.0485 6.10662C42.8354 6.13787 42.6494 6.18759 42.4903 6.25577C42.3312 6.32395 42.2076 6.41628 42.1195 6.53276C42.0315 6.6464 41.9874 6.78844 41.9874 6.9589C41.9874 7.20605 42.0769 7.39498 42.2559 7.52566C42.4377 7.6535 42.6678 7.71742 42.9462 7.71742ZM52.9668 4.1677L51.3049 4.26997C51.2765 4.12793 51.2154 4.00009 51.1217 3.88645C51.0279 3.76998 50.9043 3.67765 50.7509 3.60946C50.6004 3.53844 50.42 3.50293 50.2097 3.50293C49.9285 3.50293 49.6913 3.56259 49.4981 3.68191C49.3049 3.79838 49.2083 3.95463 49.2083 4.15066C49.2083 4.30691 49.2708 4.43901 49.3958 4.54696C49.5208 4.65492 49.7353 4.74157 50.0393 4.80691L51.2239 5.04554C51.8603 5.17622 52.3347 5.38645 52.6472 5.67622C52.9597 5.966 53.116 6.34668 53.116 6.81827C53.116 7.24725 52.9896 7.62367 52.7367 7.94753C52.4867 8.2714 52.143 8.52424 51.7055 8.70605C51.2708 8.88503 50.7694 8.97452 50.2012 8.97452C49.3347 8.97452 48.6444 8.79412 48.1302 8.43333C47.6188 8.06969 47.3191 7.57537 47.231 6.95037L49.0166 6.85662C49.0705 7.12083 49.2012 7.32253 49.4086 7.46174C49.616 7.5981 49.8816 7.66628 50.2055 7.66628C50.5237 7.66628 50.7793 7.6052 50.9725 7.48304C51.1685 7.35804 51.268 7.19753 51.2708 7.00151C51.268 6.83674 51.1984 6.70179 51.062 6.59668C50.9256 6.48873 50.7154 6.40634 50.4313 6.34952L49.2978 6.12367C48.6586 5.99583 48.1828 5.77424 47.8703 5.4589C47.5606 5.14355 47.4058 4.74157 47.4058 4.25293C47.4058 3.83247 47.5194 3.47026 47.7467 3.16628C47.9768 2.8623 48.2992 2.62793 48.714 2.46316C49.1316 2.29838 49.6203 2.216 50.1799 2.216C51.0066 2.216 51.6572 2.39071 52.1316 2.74015C52.6089 3.08958 52.8873 3.56543 52.9668 4.1677ZM57.7406 2.30122V3.66486H53.7989V2.30122H57.7406ZM54.6938 0.733043H56.5091V6.83532C56.5091 7.00293 56.5347 7.13361 56.5858 7.22736C56.6369 7.31827 56.708 7.38219 56.7989 7.41912C56.8926 7.45605 57.0006 7.47452 57.1227 7.47452C57.208 7.47452 57.2932 7.46742 57.3784 7.45321C57.4636 7.43617 57.529 7.42338 57.5744 7.41486L57.86 8.76571C57.769 8.79412 57.6412 8.82679 57.4764 8.86373C57.3117 8.9035 57.1114 8.92765 56.8756 8.93617C56.4381 8.95321 56.0546 8.89498 55.725 8.76145C55.3983 8.62793 55.144 8.42054 54.9622 8.13929C54.7804 7.85804 54.6909 7.50293 54.6938 7.07395V0.733043ZM61.8358 8.97452C61.1625 8.97452 60.583 8.83816 60.0972 8.56543C59.6142 8.28986 59.2421 7.90066 58.9807 7.39782C58.7193 6.89213 58.5886 6.29412 58.5886 5.60378C58.5886 4.93049 58.7193 4.33958 58.9807 3.83105C59.2421 3.32253 59.61 2.92622 60.0844 2.64213C60.5617 2.35804 61.1213 2.216 61.7634 2.216C62.1952 2.216 62.5972 2.2856 62.9693 2.4248C63.3443 2.56117 63.671 2.76713 63.9494 3.0427C64.2307 3.31827 64.4494 3.66486 64.6057 4.08247C64.7619 4.49725 64.8401 4.98304 64.8401 5.53986V6.03844H59.3131V4.91344H63.1313C63.1313 4.65208 63.0744 4.42054 62.9608 4.21884C62.8472 4.01713 62.6895 3.85946 62.4878 3.74583C62.2889 3.62935 62.0574 3.57111 61.7932 3.57111C61.5176 3.57111 61.2733 3.63503 61.0602 3.76287C60.85 3.88787 60.6852 4.05691 60.5659 4.26997C60.4466 4.4802 60.3855 4.71458 60.3827 4.9731V6.0427C60.3827 6.36657 60.4423 6.6464 60.5617 6.88219C60.6838 7.11799 60.8557 7.2998 61.0773 7.42765C61.2989 7.55549 61.5617 7.61941 61.8656 7.61941C62.0673 7.61941 62.252 7.591 62.4196 7.53418C62.5872 7.47736 62.7307 7.39213 62.85 7.2785C62.9693 7.16486 63.0602 7.02566 63.1227 6.86088L64.8017 6.97168C64.7165 7.37509 64.5418 7.72736 64.2776 8.0285C64.0162 8.32679 63.6781 8.55975 63.2634 8.72736C62.8514 8.89213 62.3756 8.97452 61.8358 8.97452ZM66.0247 8.84668V2.30122H67.7847V3.44327H67.8528C67.9722 3.03702 68.1725 2.7302 68.4537 2.52282C68.735 2.31259 69.0588 2.20747 69.4253 2.20747C69.5162 2.20747 69.6142 2.21316 69.7193 2.22452C69.8244 2.23588 69.9168 2.25151 69.9963 2.2714V3.88219C69.9111 3.85662 69.7932 3.8339 69.6426 3.81401C69.4921 3.79412 69.3543 3.78418 69.2293 3.78418C68.9622 3.78418 68.7236 3.84242 68.5134 3.9589C68.306 4.07253 68.1412 4.23162 68.019 4.43617C67.8997 4.64071 67.8401 4.87651 67.8401 5.14355V8.84668H66.0247Z" fill="#008080"/>
</svg>
