<svg xmlns="http://www.w3.org/2000/svg" xmlns:xlink="http://www.w3.org/1999/xlink" width="2124" height="1083" viewBox="0 0 2124 1083">
  <defs>
    <linearGradient id="linear-gradient" x1="0.5" x2="0.5" y2="1" gradientUnits="objectBoundingBox">
      <stop offset="0" stop-color="#ffce22"/>
      <stop offset="1" stop-color="#edbf1d"/>
    </linearGradient>
  </defs>
  <g id="Group_32" data-name="Group 32" transform="translate(-7760 -12397)">
    <g id="Layer_1" transform="translate(7765.604 12381.8)">
      <path id="Path_44" data-name="Path 44" d="M-5.6,1095.885V955.772H130.093V852.786c0-11.05,2.21-22.984-7.072-33.15a36.011,36.011,0,0,1,3.978-.884c12.818-.442,12.818-.442,16.354-12.376,1.326-4.862,3.536-9.724,3.978-14.586.884-6.63,4.42-7.956,10.608-7.956,30.056,0,59.67-.442,89.726,0,6.188,0,8.4-1.768,7.956-7.956-.442-3.094,0-6.63,0-10.166,0-10.608,0-11.05,10.608-11.492,5.3-.442,4.862-3.536,4.862-7.072-.884-7.956,1.326-11.934,10.608-11.934,10.166,0,16.8-7.514,23.868-14.144a79.427,79.427,0,0,0,8.4-8.84c14.144,9.282,22.984,27.4,45.084,19.89.442,5.3.884,10.166,1.326,15.028.442,11.05.442,11.05,11.05,11.05h23.868c5.746,0,11.492.442,15.47-5.746,1.326-1.768,5.3-2.21,7.956-2.21h78.676v83.1c10.166-6.188,19.448-11.492,28.288-18.122,1.768-1.326,2.21-5.746,2.21-9.282,0-48.178,0-95.914.442-144.091V549.133c0-3.536-2.652-7.514-3.094-11.05a71.279,71.279,0,0,1-.442-19.448c.442-2.21,6.188-3.094,11.05-5.746a60.994,60.994,0,0,0,.442-6.188c.884-23.868,11.05-43.316,30.94-57.018,7.956-5.746,11.492-13.26,11.492-22.542,0-11.934-.442-23.868-.442-36.244,0-6.188-1.768-11.492-7.514-15.028-4.862-3.094-4.42-5.746,0-9.282,1.768-1.326,2.652-4.42,3.094-7.072.884-9.724.884-19.006,1.768-28.73,0-.884,2.21-1.768,3.536-3.094.884,1.326,2.21,2.21,2.21,3.536.442,4.42,0,8.84,0,13.7,7.956.442,11.05-2.21,10.608-8.84a16.543,16.543,0,0,0-2.21-7.956c-7.956-16.354-6.188-33.592.442-49.062,7.956-18.122,9.724-36.686,11.05-56.134,3.094-40.664,6.63-80.886,9.724-121.549.442-3.536-2.21-6.63-2.652-10.166a32.759,32.759,0,0,1,.442-9.282c.884-3.094,3.536-6.188,3.536-9.282.442-10.166.884-20.332.442-30.5,0-3.536-2.21-6.63-3.536-10.166,1.768-4.862,3.536-11.05,5.3-16.8,3.536,4.862-3.536,13.7,4.42,15.912-1.326,3.978-3.536,7.514-3.536,11.05-.442,10.166-2.652,21.216.884,30.5,3.978,11.05,0,20.774.884,30.94,3.094,49.062,6.63,98.566,10.608,147.627.442,4.862,2.21,9.282,3.978,14.144,3.094,10.166,7.072,20.332,9.724,30.5,2.652,9.724,1.326,19.448-1.768,29.172a37.213,37.213,0,0,0-1.768,15.47c.442,2.21,4.862,3.978,7.514,6.188A62.622,62.622,0,0,0,649,338.742c.442-1.768-.884-3.978-.884-5.746,0-1.326,1.326-2.652,2.21-3.978,1.326.884,3.094,2.21,3.094,3.094.884,9.282.884,19.006,2.21,28.288.442,3.978,3.978,7.514,6.188,12.376a13.146,13.146,0,0,0-3.094,3.536c-2.652,4.862-6.63,9.724-7.072,14.586-.884,13.26-1.326,26.52,0,39.78.442,5.746,3.978,12.818,8.84,15.912,22.984,16.354,34.918,38.012,34.918,66.3,0,.442.442.884,0,0,4.862,2.21,11.05,3.094,11.05,5.3.884,6.63,0,13.7-.884,20.332-.442,3.536-2.652,6.63-2.652,9.724V732.121c0,6.188,1.768,8.84,7.956,8.4a118.026,118.026,0,0,1,17.68,0c5.746.442,7.956-.884,8.84-7.072,8.84-53.924,49.946-94.146,103.869-102.986,67.184-11.05,131.715,34.476,143.649,101.66a51.392,51.392,0,0,0,1.768,7.956h62.764V728.143c0-19.89.442-39.338-.442-59.228,0-5.3-2.652-10.608-4.42-15.47-.884-2.21-1.326-4.862-2.21-7.514,3.094-.442,4.862-.442,8.4-.884-.884-12.376-1.768-25.194-2.652-38.012.884,0,1.326-.442,2.21-.442,1.326,1.768,2.652,3.094,3.978,4.862a19.133,19.133,0,0,0,2.21-.442,113.016,113.016,0,0,0,2.21-11.934c0-6.63-2.21-14.144,0-20.332,7.072-21.216,7.072-43.316,9.282-64.974,1.326-11.05,2.21-21.658,2.652-32.708.884-12.376,1.768-24.31,2.21-36.686,0-4.42-.442-9.282-.884-13.7h3.094c0,3.536-.884,7.514-.442,11.05.442,7.072,1.768,13.7,2.21,20.774.442,3.536-1.326,7.072-.884,10.166,2.652,29.172,5.3,57.9,7.956,87.074a38.231,38.231,0,0,0,2.652,10.166,57.706,57.706,0,0,1,3.094,30.056c-.442,3.536.884,7.956,1.326,11.492h2.652c.884-1.768,2.21-3.536,3.094-5.3.884,0,1.768.442,2.652.442-.442,12.818-1.326,25.194-1.768,38.012,11.05,2.652,11.05,2.652,3.978,11.492-1.326,1.326-2.652,3.536-2.652,5.3v78.676h15.028v-28.73c0-3.094-1.768-7.072,3.536-7.514.884,0,1.326-3.094,1.326-4.862.442-4.42.442-9.282.442-13.7.442-6.63,3.094-11.934,9.282-14.586,8.4-3.536,7.956-11.05,8.84-18.122.884-5.3,0-11.05,1.768-16.8,0,2.652.442,5.746.442,8.4.442,6.63.884,13.7,1.768,20.332,0,1.326,1.768,3.094,3.094,3.536,10.166,4.862,13.7,12.818,13.26,23.426v11.492c.884,0,1.768-.442,2.652-.442,1.326,3.094,3.536,5.746,3.978,8.84.442,7.956.442,15.912.442,23.868,0,4.42,1.768,6.188,5.746,5.746h15.47V708.695h8.4a65.277,65.277,0,0,0,.442,9.282c1.326,6.188,5.746,10.608,11.492,10.166,3.094-.442,7.072-5.3,8.4-8.84,3.978-13.7,6.63-27.4,9.282-41.106,1.326-6.63,4.862-9.724,11.492-8.84,7.514.884,11.934-1.768,14.586-9.282,1.768-4.42,6.63-8.4,11.05-11.05,3.978-2.21,7.072-4.42,7.956-9.282,1.326-8.84,7.514-14.144,15.47-17.68s7.956-5.746.884-11.05c-10.608-7.514-10.166-22.542,1.326-28.288,4.862-2.652,6.188-5.746,6.188-10.608V535.431a6.153,6.153,0,0,1,2.21-4.862V573c0,4.42.884,7.514,5.746,9.282,6.63,2.21,9.282,7.956,9.282,14.586.442,6.63-2.21,11.934-8.4,15.028-2.21,1.326-3.536,3.536-5.3,5.746,2.21,1.768,3.978,3.978,6.188,4.862,9.282,3.536,14.586,9.724,16.8,19.448a10.452,10.452,0,0,0,5.3,6.188c7.956,3.536,14.144,8.4,17.238,17.238.884,2.21,4.862,3.978,7.514,4.42,15.47,1.326,13.26,0,17.238,14.144,3.094,11.934,5.746,23.868,8.84,35.8,1.326,4.42,1.326,10.608,8.4,9.282,6.63-.884,10.608-5.3,11.492-11.492.442-2.652,0-4.862,0-7.514,7.514-2.21,8.84-1.326,8.84,6.63,0,23.426,0,46.41.442,69.836,0,2.652.442,5.3.442,8.4h8.4c.442-.884.884-1.326.884-1.768,1.326-17.238,2.652-34.476,3.536-52.156.442-7.072,2.652-12.818,9.282-16.8,1.768-.884,2.652-3.978,2.652-6.188.442-8.4,5.3-16.354,13.26-19.006,6.63-2.21,18.122,7.514,18.122,15.912,0,4.862,1.768,7.072,4.862,10.608s6.188,8.4,6.63,13.26c2.21,15.912,3.094,31.824,5.3,47.736.442,2.652,2.21,5.3,3.536,7.514,1.768-2.21,4.42-4.42,4.862-7.072,5.3-21.216,10.166-42.874,15.028-64.09,1.326-6.188,3.978-7.956,10.166-7.956,22.1.442,43.758,0,65.858,0,2.652,0,5.3-.442,9.282-.442-2.21-13.7,3.094-27.4-3.536-40.222-1.768-3.978,0-6.188,4.862-6.188h15.028c1.768-15.912,3.536-30.94,5.3-45.526.884,0,1.768-.442,3.094-.442.884,2.652,2.652,4.862,3.094,7.514,1.326,10.608,2.21,20.774,2.652,31.382.442,5.3,1.768,7.514,7.072,7.072h1.326c11.934.442,11.05,0,9.724,11.492-1.326,10.608-.442,21.216,0,32.266,0,1.326,4.42,3.536,6.63,3.536,18.564.442,37.128,0,56.134,0h66.742v58.344H1817.2c0-.884.884-1.768.442-2.652-1.768-7.072-.884-11.934,8.4-11.05,1.326,0,4.42-3.094,4.42-4.862.442-27.846,0-55.692,0-83.538a8.53,8.53,0,0,0-1.326-4.42c-2.652-4.862-5.3-9.282-9.282-15.912,7.514,0,11.492-.442,15.912,0,4.862.442,6.188-1.768,6.188-6.188-.442-8.84.442-17.238-.442-26.078-.442-4.42-3.536-8.4-4.862-11.05,2.21-4.862,4.42-8.84,5.746-13.26,3.536-14.586,12.376-25.194,25.636-33.15a53.109,53.109,0,0,1,6.63-3.536c-.884-8.84-1.768-16.354-1.768-23.868a10.3,10.3,0,0,1,3.094-6.63c11.492-11.934,4.42-26.52,5.3-40.222,0-1.768-3.536-3.536-6.63-6.188,8.84-5.746,16.354-11.934,16.8-23.868,7.072,9.282,12.818,16.8,19.006,24.752-7.514,3.094-4.862,11.05-4.862,17.68,0,10.608-.884,20.332,7.514,30.056,6.63,7.514,3.536,17.238-3.094,26.078,2.652,1.768,5.3,3.094,7.514,4.42,15.47,8.4,26.078,20.774,29.614,38.9.442,3.094,3.536,5.3,5.3,8.4-11.05,12.376-3.094,28.288-6.188,43.758h22.1c-3.094,6.188-5.746,11.492-7.956,16.354a15.7,15.7,0,0,0-.884,4.42v83.538c5.746,6.188,9.724,11.05,13.7,15.47-.884.442-1.326.442-2.21.884-.884,2.21-3.094,4.862-3.094,7.072V951.351c0,6.63,3.978,6.188,7.956,6.188h140.555a40.456,40.456,0,0,1,.442,7.072V1089.7c0,5.746-1.326,8.4-7.514,7.956-4.42-.442-9.282,0-13.7,0H3.682C1.472,1095.885-1.622,1095.885-5.6,1095.885ZM1710.678,769.69c5.746-.442,11.934-.442,17.68-.884,1.326,0,3.536-1.768,3.536-3.094.442-6.63,0-12.818,0-19.448-27.4,0-22.542-3.094-22.542,21.216C1709.352,767.922,1709.352,768.365,1710.678,769.69Zm19.448,68.952h-15.912c-1.768,0-4.42,1.326-4.862,2.652-.442,6.63,0,13.26,0,19.89,22.984,1.326,24.752-.442,21.658-21.216C1731.01,839.526,1730.568,839.526,1730.126,838.642Zm-323.542-3.094V853.67c0,1.326,2.21,3.978,3.094,3.978,5.746.442,11.492,0,17.238,0,3.094-22.984,1.326-25.636-18.564-22.984C1408.351,834.664,1407.909,834.664,1406.583,835.548ZM1708.91,794c0,6.63-.442,12.376,0,17.68,0,1.768,2.652,4.42,4.42,4.42,5.746.442,11.492,0,17.68,0V793.558C1723.5,794,1716.866,794,1708.91,794Zm-301,136.578V954c6.188,0,11.05.442,15.912,0,1.326,0,3.978-2.652,3.978-3.978.442-6.63,0-12.818,0-19.448Zm65.416-.442v23.426c5.746,0,11.05.442,16.354,0,1.326,0,3.536-2.21,3.978-3.536.442-6.63,0-12.818,0-19.89Zm258.569-23.426c0-6.63.442-12.376,0-17.68,0-1.768-2.21-3.978-3.978-4.42-5.746-.442-11.492,0-17.238,0v21.658c2.21,0,3.978.442,5.746.442Zm-303.653-14.144c-.442-11.934,2.652-11.492-13.26-11.492-8.84,0-7.956,0-8.84,15.028-.442,11.492,7.514,7.072,12.376,7.514C1428.241,904.058,1428.241,903.616,1428.241,892.566Zm281.552,38.454c0,7.072-.442,12.818,0,18.564,0,1.326,2.21,3.978,3.536,3.978,5.746.442,11.492,0,17.68,0V934.556c0-1.326-2.21-3.536-3.536-3.536C1722.17,930.578,1716.424,931.02,1709.794,931.02Zm-236.911-96.355v21.658h19.448V834.664Zm-.442,68.068h20.332V881.516c-19.448-3.978-21.216-2.652-20.774,15.912A19.823,19.823,0,0,1,1472.441,902.732ZM1250.558,953.12V926.6h-15.47v26.52Zm0-89.725h-15.912v15.028c0,12.818,0,12.818,12.818,11.934a11.249,11.249,0,0,0,3.094-.884Zm0-57.9c-5.746.884-14.586.884-14.586,2.652a72.084,72.084,0,0,0,0,23.868c.442,1.768,9.282,1.768,15.028,2.21C1250.558,824.5,1250.558,816.1,1250.558,805.492ZM1366.8,832.9V809.912c0-1.326-1.326-3.536-2.652-3.978-8.4-3.094-13.26.442-13.26,9.282v4.42C1350.892,834.664,1350.892,834.664,1366.8,832.9Zm-15.912,119.781H1366.8c0-8.4.442-15.912-.442-23.868,0-1.326-5.746-3.094-8.84-3.094-2.21,0-6.188,2.21-6.188,3.978C1350.45,937.208,1350.892,944.722,1350.892,952.678Zm-22.1-26.962a11.244,11.244,0,0,0-.884,3.094v13.7c0,11.492,0,11.492,11.934,10.608a11.248,11.248,0,0,0,3.094-.884v-26.52Zm22.1-35.36c4.862,0,8.4.442,12.376,0a8.673,8.673,0,0,0,3.978-3.978c.442-6.63,0-13.26,0-19.89,0-5.3-4.42-4.42-7.072-3.978-3.094.442-8.4-2.652-8.84,3.978C1350.45,874,1350.892,881.958,1350.892,890.356Zm-22.542,0h15.028v-17.68c0-10.608,0-10.608-11.05-10.166a16.4,16.4,0,0,0-3.978.884Zm-54.808,62.764V926.6h-13.7v26.52Zm-13.7-63.206h13.7V862.952h-13.7Zm82.654-83.538h-13.7V832.9h13.7Zm-68.952,26.962V810.8c0-5.3-3.978-4.42-7.072-4.42s-7.072-1.326-7.072,3.978v22.984Zm-940.13,26.52V834.222c-4.862,1.326-11.492,2.21-11.492,3.536a62.809,62.809,0,0,0,.442,20.332C322.362,858.974,328.992,858.974,333.412,859.858Zm-34.034,70.278c0,7.072-.442,13.7.442,20.332,0,1.326,3.978,3.536,5.746,3.536,2.21,0,6.188-2.21,6.63-3.536.884-6.63.442-13.26.442-19.89C307.335,930.136,303.8,930.136,299.379,930.136Zm-8.84-94.588c-3.536,0-6.63-.442-9.282,0-1.768.442-4.42,2.21-4.42,3.536-.442,5.746-.884,11.05.442,16.8.442,1.768,4.862,3.536,7.514,3.536,1.768,0,5.746-2.21,5.746-3.536C290.981,849.25,290.539,842.62,290.539,835.548Zm-13.26,93.7v25.194c4.862-.442,11.934-.442,11.934-1.768a54.727,54.727,0,0,0,0-20.774C289.655,930.578,282.583,930.136,277.279,929.252Zm56.134,23.426a3.376,3.376,0,0,0,.884-2.21V935.44c.442-5.3-2.21-6.188-7.072-6.188s-7.072,1.768-6.63,6.63c.442,2.652,0,4.862,0,7.514C321.036,954.888,321.478,955.33,333.412,952.678Zm-11.934-68.51v22.1h12.376v-22.1Zm1566-389.842c-3.536,18.564-4.862,21.658,13.7,19.448V489.906c-9.724,3.094-5.746,11.934-8.4,18.122-.442-5.746-.442-10.608-.884-15.912h-2.21c-.442,5.746-.884,11.05-1.768,16.8h-.884C1887.477,504.05,1887.477,499.188,1887.477,494.326ZM311.754,884.168c-4.42,0-7.956.442-11.492.442v22.1h11.492Zm1509.865-86.632c1.768-6.63-1.326-8.4-8.4-8.4-7.956,0-7.514,3.978-7.956,9.282-.442,7.514,2.652,8.84,9.282,8.84C1821.619,807.26,1822.5,803.724,1821.619,797.536ZM299.379,835.99v16.354c0,4.862.884,7.514,6.63,7.514,6.188,0,6.63-3.094,6.188-7.514v-6.63C312.2,834.222,311.754,833.78,299.379,835.99Zm-9.724,71.162V884.61c-2.652,0-4.42-.442-5.746-.442-1.768,0-3.978.442-5.746.442v22.1A99.9,99.9,0,0,0,289.655,907.152Zm1531.965-72.488c1.768-7.072-1.326-8.84-8.84-8.84-8.4,0-6.63,5.3-7.072,10.166-.884,7.072,2.652,8.84,9.282,8.84C1822.945,844.83,1822.5,840.41,1821.619,834.664Zm-14.144,27.846c-.884.884-1.326,1.768-2.21,2.21.884,5.3,1.326,11.492,3.536,15.912.884,1.326,10.166.884,11.492-1.326,2.21-3.536,2.652-10.608.442-13.7C1818.526,862.952,1812.337,863.394,1807.476,862.51Zm-.884,91.936h14.144c1.768-18.122,3.536-19.89-14.144-16.354Zm13.26-35.36c.884-.884,1.768-1.326,2.652-2.21-.884-5.746-1.326-11.492-3.536-16.354-.884-1.326-10.608-.884-11.492.884-2.21,3.978-2.652,10.608-.442,14.144C1808.8,918.644,1815.431,918.2,1819.851,919.086ZM439.492,946.048c.442-.442.884-.442,1.326-.884-1.768-2.652-3.094-5.3-4.862-7.956-.442-.442-3.536.884-3.536,1.326a75.709,75.709,0,0,0,.442,14.144c0,.442,2.652,1.326,3.978.884a6.219,6.219,0,0,0,3.094-2.652C439.934,949.584,439.492,947.816,439.492,946.048Zm-280.669,0c-3.094-3.536-4.862-7.956-7.072-7.956-6.63-.442-3.536,5.3-3.978,8.4,0,3.094-2.21,8.4,3.978,7.514C153.961,953.562,155.729,949.584,158.823,946.048ZM419.16,890.8c-7.956-.442-9.282,2.652-7.072,15.47C419.16,909.362,421.37,908.478,419.16,890.8Zm-263.873.442c-8.84-.442-10.166,1.768-7.072,15.912,2.21,0,4.42-.442,7.072-.442Zm283.321,15.912V889.914c-2.652.442-4.862.442-7.072.884V906.71A40.449,40.449,0,0,0,438.608,907.152ZM167.221,945.164c.884,3.094,1.326,6.188,2.652,8.4.442.442,4.862-.442,5.3-.884a75.6,75.6,0,0,0,0-14.144c0-.442-4.862-1.768-4.862-1.326C168.547,939.86,168.105,942.512,167.221,945.164Zm199.341-7.514c0,4.42-.442,8.84,0,12.818,0,1.768,2.21,3.094,3.536,4.42,1.326-1.326,3.536-2.652,3.978-3.978.884-2.652,0-5.746.442-8.4C374.518,936.324,371.866,935.882,366.562,937.65Zm-111.383,7.956c0-2.652,0-5.3-.884-7.514-.442-.884-3.094-.884-4.42-1.326-.884,3.978-2.21,7.514-2.652,11.492,0,1.768,1.326,3.978,3.094,5.746.442.442,3.978-.442,4.42-1.768C255.179,950.468,254.737,948.258,255.179,945.606Zm-67.626-7.514c0,2.21-.884,3.978,0,5.746,1.326,3.536-3.536,10.608,4.42,10.608,7.514-.442,3.094-7.072,3.536-11.05Q196.835,934.777,187.553,938.092Zm283.321,7.514h0c0,1.768-.442,3.978.442,5.3.442,1.326,2.652,2.652,3.536,3.536,1.326-2.652,3.536-5.3,3.536-7.514,0-3.536,3.094-8.84-3.094-9.724-1.326,0-3.094,1.768-3.978,3.094S470.874,943.838,470.874,945.606Zm-19.89,0h0c0,1.768-.442,3.978.442,5.3s3.094,2.21,4.42,3.536c.884-3.536,2.652-7.072,2.652-10.608,0-2.21-2.21-4.42-3.536-7.072-1.326,1.326-3.094,2.21-3.978,3.978C450.1,942.07,450.984,943.838,450.984,945.606Zm-38.9,7.514c.884.442,1.326,1.326,2.21,1.768,1.768-1.326,5.3-2.652,5.3-3.978,0-4.42-.884-9.282-1.326-13.7-2.21.884-5.746,1.768-5.746,3.094C411.646,944.722,412.088,949.142,412.088,953.12Zm-256.8-99.891c0-1.326.442-2.652,0-3.978a17.3,17.3,0,0,0-3.536-4.42c-1.326,1.768-3.536,3.094-3.978,4.862-.884,2.652-.442,5.746,0,8.4.442,1.768,2.21,3.094,3.536,4.42,1.326-1.768,3.094-3.094,3.978-4.862C155.729,856.764,155.287,855,155.287,853.228Zm79.56,1.326c0-1.326.442-2.652,0-3.536a55.2,55.2,0,0,0-3.978-5.3c-1.326,1.768-3.094,3.094-3.536,5.3a26.76,26.76,0,0,0,0,8.4c.442,1.768,2.652,3.094,3.978,3.536.884,0,2.652-1.768,3.536-3.536C235.289,857.648,234.847,855.88,234.847,854.554Zm236.027,6.63c4.862,1.326,8.4,1.326,7.956-4.862,0-2.652.442-5.3,0-7.514-.442-1.326-2.21-2.652-3.536-3.978-1.326,1.326-3.536,2.652-3.978,3.978C470.432,853.228,470.874,857.206,470.874,861.184ZM420.044,846.6c-4.862-2.652-7.956-2.21-7.514,4.42,0,2.21-.442,4.862,0,6.63s2.21,3.536,3.536,5.3c1.326-1.768,3.536-3.094,3.978-4.862C420.486,854.554,420.044,851.018,420.044,846.6Zm-165.749,7.514h0c0-1.326.442-3.094,0-4.42-.884-1.768-2.652-3.094-3.536-4.42-1.326,1.326-3.094,2.652-3.536,4.42a35.822,35.822,0,0,0,0,9.724c0,1.326,2.21,3.094,3.094,3.094,1.326-.442,3.536-1.768,3.978-3.094S254.295,855.88,254.295,854.112Zm204.645-7.956c-5.3-2.21-8.4-1.768-7.956,4.42,0,2.652-.442,5.3,0,7.514.442,1.326,2.652,3.536,3.536,3.536,1.768-.442,3.978-2.21,4.42-3.536C459.382,854.554,458.94,850.134,458.94,846.156ZM400.6,946.048c-.442-2.652-.442-5.746-1.768-7.956-.442-.884-3.536,0-5.3,0,0,5.3,0,10.166.442,15.47,0,0,4.862.884,5.3,0C400.154,951.352,400.154,948.7,400.6,946.048Zm77.792-47.294h0c0-1.768.442-3.536-.442-5.3-.442-1.326-2.21-2.652-3.536-3.536-1.326,2.21-3.536,4.42-3.536,6.63.442,3.536-3.094,8.84,3.094,10.608.884.442,3.094-1.768,3.978-3.094S478.388,900.522,478.388,898.754Zm-27.4,7.514c.884.884,1.768,1.326,2.652,2.21,1.768-1.768,4.42-3.094,4.862-5.3.884-2.652.442-6.188,0-8.84-.442-1.326-2.21-2.652-3.536-3.978-1.326,1.326-3.536,2.652-3.978,3.978C450.542,898.312,450.984,902.29,450.984,906.268Zm-49.946-6.63a52,52,0,0,0-3.094-8.84c0-.442-4.42.442-4.42.884a85.279,85.279,0,0,0,0,15.028c0,.442,3.978,1.326,4.42.442A38.24,38.24,0,0,0,401.038,899.638Zm-26.962-8.4c-5.3-1.768-7.956-.884-7.956,4.42,0,2.652-.442,5.746.442,8.4.442,1.326,2.21,2.652,3.536,3.978,1.326-1.326,3.536-2.652,3.978-3.978C374.518,899.638,374.076,895.66,374.076,891.24ZM254.737,906.268c-2.21-5.3,3.978-13.7-3.978-15.47-7.514-1.326-3.536,7.072-3.978,11.05C245.9,907.152,248.991,908.478,254.737,906.268Zm-27.846,2.652c3.978-1.768,7.956-3.094,7.956-4.42.442-4.42,0-9.724-1.768-13.7-.442-1.326-6.188-1.326-6.188,3.536C226.891,898.312,226.891,902.732,226.891,908.92Zm-11.934-9.282c.442,0,.884-.442,1.326-.442-1.768-2.652-3.094-5.746-4.862-8.4,0-.442-3.536.884-3.536,1.326a75.6,75.6,0,0,0,0,14.144c0,.442,2.652,1.326,3.978,1.326a5.339,5.339,0,0,0,3.094-3.094C215.4,902.732,214.957,900.964,214.957,899.638Zm-27.4-.884h0c0,2.21-.442,4.42.442,6.188.442,1.326,3.094,3.094,4.42,2.652,6.63-1.768,2.652-7.514,3.094-11.492.442-1.768-2.21-3.978-3.536-5.746-1.326.884-3.094,1.768-3.978,3.536C187.111,895.218,187.553,896.986,187.553,898.754ZM168.547,890.8a22.185,22.185,0,0,0-.884,5.3c.884,3.978-3.536,11.05,3.536,11.05,7.956.442,3.094-7.072,3.978-11.05C176.5,890.8,173.851,889.03,168.547,890.8Zm198.015-27.4c3.094-.884,6.63-1.326,6.63-2.21.442-4.862,0-9.724-.442-15.028,0-.442-3.536-.442-6.188-.884Zm-198.457-9.282h0c0,1.326-.442,2.652,0,3.978a33.742,33.742,0,0,0,3.536,4.862c1.326-1.768,3.536-3.094,3.978-4.862.884-2.652.442-5.746,0-8.4-.442-1.768-2.21-3.094-3.536-4.42-1.326,1.326-3.094,2.21-3.536,3.978C167.663,850.576,168.105,852.344,168.105,854.112Zm27.4.442h0c0-1.326.442-2.652,0-3.536a36.87,36.87,0,0,0-3.536-5.3c-1.326,1.768-3.536,3.094-4.42,5.3-.884,2.652-.442,5.746,0,8.4.442,1.326,2.652,3.094,3.978,3.094s3.094-1.768,3.978-3.094C195.951,857.648,195.509,855.88,195.509,854.554Zm235.143-1.326c.884,3.094,1.326,5.746,2.21,8.4.442.442,5.3-.442,5.3-.884.442-4.862,0-9.724-.442-15.028,0-.442-4.42-.884-4.42-.442C431.978,847.924,431.536,850.576,430.652,853.228Zm-38.012.442c0,1.768-.442,3.536,0,5.3.442,1.326,2.652,2.21,3.536,3.536,1.326-3.094,3.094-6.188,3.094-9.282,0-2.652-2.21-4.862-3.536-7.514-1.326,1.326-2.652,2.21-3.536,3.536C391.756,850.576,392.64,852.344,392.64,853.67ZM214.957,946.49c0-.884.442-2.21,0-3.094a44.172,44.172,0,0,0-3.536-6.188c-1.326,1.768-3.094,3.536-3.978,5.746a16.7,16.7,0,0,0,0,6.63c.442,1.768,2.652,2.652,3.978,3.978a28.593,28.593,0,0,0,3.536-3.978C215.4,949.584,214.957,947.816,214.957,946.49Zm11.934-.884c-.442.442-.884.442-1.326.884l5.3,7.956c1.326-1.768,3.978-3.978,3.978-5.3-.442-3.978,3.536-9.724-3.536-11.05-1.326-.442-3.094,1.768-4.42,3.536C226.449,942.07,226.891,944.28,226.891,945.606Zm-11.934-99.45c-7.514,0-9.724,3.536-7.514,12.376.442,1.326,2.21,3.536,3.536,3.536s3.536-1.768,3.978-3.094C215.4,854.554,214.957,850.576,214.957,846.156Z" transform="translate(0 0)" fill="url(#linear-gradient)"/>
    </g>
    <rect id="Rectangle_73" data-name="Rectangle 73" width="156" height="141" transform="translate(9728 13339)" fill="#eec01e"/>
    <rect id="Rectangle_74" data-name="Rectangle 74" width="156" height="141" transform="translate(7760 13339)" fill="#eec01e"/>
  </g>
</svg>
