<svg width="1728" height="9" viewBox="0 0 1728 9" fill="none" xmlns="http://www.w3.org/2000/svg">
<path d="M0 6.88831C3.56594 8.24056 14 2.00002 23.5 2.00002C33 2.00002 37.5 8.50002 46.5 8.50002C55.5 8.50002 60 2.00002 69.5 2.00002C79 2.00002 81.9416 8.6643 90 8.50002C99.2861 8.31071 103 2.00002 112 2.00002C121 2.00002 125.613 8.50002 135 8.50002C144.129 8.50002 142.51 2.00002 153 2.00002C163.49 2.00002 163.032 8.50002 172 8.50002C180.968 8.50002 185.637 2.00002 194 2.00002C202.363 2.00002 207.958 8.50002 218 8.50002C228.042 8.50002 231.996 2.00002 240.5 2.00002C249.004 2.00002 252.901 8.50002 263.5 8.50002C274.099 8.50002 275.071 1.8266 284 2.00002C292.929 2.17343 294.773 8.50002 305.5 8.50002C316.227 8.50002 317.855 2.00002 327.5 2.00002C337.145 2.00002 338.945 8.50002 349 8.50002C359.055 8.50002 360.552 2.00002 371 2.00002C381.448 2.00002 381.827 8.50002 390.5 8.50002C401.89 8.50002 404.5 2.04645 415 2.00002C425.5 1.95358 427.188 8.35079 437 8.50002C448.768 8.50002 452.336 2.3266 462 2.00002C471.664 1.67343 473 8.50002 496 8.50002C519 8.50002 516 2.00002 530 2.00002C544 2.00002 550 8.50002 565 8.50002C580 8.50002 574 2.00002 590 2.00002C606 2.00002 599 8.50002 616 8.50002C633 8.50002 625 2.00002 640 2.00002C655 2.00002 647.5 8.50002 667 8.50002C686.5 8.50002 681.5 2.00002 690.5 2.00002C699.5 2.00002 696 8.50002 702.5 8.50002C709 8.50002 716 2.00002 727.5 2.00002C739 2.00002 736 8.50002 748 8.50002C760 8.50002 759 2.00002 769.5 2.00002C780 2.00002 777.5 8.50002 793.5 8.50002C809.5 8.50002 806.5 2.00002 820 2.00002C833.5 2.00002 826 8.50002 843 8.50002C857 8.50002 864.5 2.00002 874.5 2.00002C884.5 2.00002 885 8.50002 895 8.50002C905 8.50002 908.5 2.00002 917.5 2.00002C926.5 2.00002 932.5 8.50002 940 8.50002C947.5 8.50002 954 2.00002 965 2.00002C976 2.00002 974 8.50002 984.5 8.50002C995 8.50002 1000.5 4.50004 1011.5 2.00002C1022.5 -0.500008 1020.5 8.50002 1031 8.50002C1041.5 8.50002 1045.5 2.00002 1059 2.00002C1072.5 2.00002 1072 8.50002 1085 8.50002C1098 8.50002 1104.5 2.00002 1115.5 2.00002C1126.5 2.00002 1122.5 8.50002 1132.5 8.50002C1142.5 8.50002 1157 2.00002 1169 2.00002C1181 2.00002 1180.5 8.50002 1193.5 8.50002C1206.5 8.50002 1206.5 2.00002 1217.5 2.00002C1228.5 2.00002 1232.5 8.50002 1242 8.50002C1251.5 8.50002 1258.5 2.00002 1276 2.00002C1293.5 2.00002 1285 8.50002 1298.5 8.50002C1312 8.50002 1318 2.00002 1327.5 2.00002C1337 2.00002 1339 8.50002 1347.5 8.50002C1356 8.50002 1370 2.00002 1385 2.00002C1400 2.00002 1397 8.50002 1407 8.50002C1417 8.50002 1421.5 2.00002 1429.5 2.00002C1437.5 2.00002 1437 8.50002 1445.5 8.50002C1454 8.50002 1456.5 2.00002 1463 2.00002C1469.5 2.00002 1469.5 8.50002 1475 8.50002C1480.5 8.50002 1486 2.00002 1491 2.00002C1496 2.00002 1496 8.50002 1501 8.50002C1506 8.50002 1512.5 0.499994 1519 0.499994C1525.5 0.499994 1524.5 8.50002 1532 8.50002C1539.5 8.50002 1541.5 2.00002 1549.5 2.00002C1557.5 2.00002 1557.5 8.50002 1565 8.50002C1572.5 8.50002 1578.5 3.49999 1589 3.49999C1599.5 3.49999 1596 8.50002 1604 8.50002C1612 8.50002 1622.5 2.00002 1637 2.00002C1651.5 2.00002 1645 8.50002 1654 8.50002C1663 8.50002 1667.5 2.00002 1678 2.00002C1688.5 2.00002 1684 8.50002 1693 8.50002C1702 8.50002 1710.5 2.00002 1722.5 2.00002C1734.5 2.00002 1733 8.50002 1745.5 8.50002" stroke="#CC6666" stroke-width="0.5"/>
</svg>
