<svg width="1728" height="9" viewBox="0 0 1728 9" fill="none" xmlns="http://www.w3.org/2000/svg">
<path d="M1745.5 2.11486C1741.93 0.762612 1731.5 7.00316 1722 7.00316C1712.5 7.00316 1708 0.503158 1699 0.503158C1690 0.503158 1685.5 7.00316 1676 7.00316C1666.5 7.00316 1663.56 0.338876 1655.5 0.503158C1646.21 0.692468 1642.5 7.00316 1633.5 7.00316C1624.5 7.00316 1619.89 0.503158 1610.5 0.503158C1601.37 0.503158 1602.99 7.00316 1592.5 7.00316C1582.01 7.00316 1582.47 0.503158 1573.5 0.503158C1564.53 0.503158 1559.86 7.00316 1551.5 7.00316C1543.14 7.00316 1537.54 0.503158 1527.5 0.503158C1517.46 0.503158 1513.5 7.00316 1505 7.00316C1496.5 7.00316 1492.6 0.503158 1482 0.503158C1471.4 0.503158 1470.43 7.17658 1461.5 7.00316C1452.57 6.82974 1450.73 0.503158 1440 0.503158C1429.27 0.503158 1427.64 7.00316 1418 7.00316C1408.36 7.00316 1406.56 0.503158 1396.5 0.503158C1386.44 0.503158 1384.95 7.00316 1374.5 7.00316C1364.05 7.00316 1363.67 0.503158 1355 0.503158C1343.61 0.503158 1341 6.95672 1330.5 7.00316C1320 7.0496 1318.31 0.65238 1308.5 0.503158C1296.73 0.503158 1293.16 6.67658 1283.5 7.00316C1273.84 7.32974 1272.5 0.503158 1249.5 0.503158C1226.5 0.503158 1229.5 7.00316 1215.5 7.00316C1201.5 7.00316 1195.5 0.503158 1180.5 0.503158C1165.5 0.503158 1171.5 7.00316 1155.5 7.00316C1139.5 7.00316 1146.5 0.503158 1129.5 0.503158C1112.5 0.503158 1120.5 7.00316 1105.5 7.00316C1090.5 7.00316 1098 0.503158 1078.5 0.503158C1059 0.503158 1064 7.00316 1055 7.00316C1046 7.00316 1049.5 0.503158 1043 0.503158C1036.5 0.503158 1029.5 7.00316 1018 7.00316C1006.5 7.00316 1009.5 0.503158 997.5 0.503158C985.5 0.503158 986.5 7.00316 976 7.00316C965.5 7.00316 968 0.503158 952 0.503158C936 0.503158 939 7.00316 925.5 7.00316C912 7.00316 919.5 0.503158 902.5 0.503158C888.5 0.503158 881 7.00316 871 7.00316C861 7.00316 860.5 0.503158 850.5 0.503158C840.5 0.503158 837 7.00316 828 7.00316C819 7.00316 813 0.503158 805.5 0.503158C798 0.503158 791.5 7.00316 780.5 7.00316C769.5 7.00316 771.5 0.503158 761 0.503158C750.5 0.503158 745 4.50314 734 7.00316C723 9.50318 725 0.503158 714.5 0.503158C704 0.503158 700 7.00316 686.5 7.00316C673 7.00316 673.5 0.503158 660.5 0.503158C647.5 0.503158 641 7.00316 630 7.00316C619 7.00316 623 0.503158 613 0.503158C603 0.503158 588.5 7.00316 576.5 7.00316C564.5 7.00316 565 0.503158 552 0.503158C539 0.503158 539 7.00316 528 7.00316C517 7.00316 513 0.503158 503.5 0.503158C494 0.503158 487 7.00316 469.5 7.00316C452 7.00316 460.5 0.503158 447 0.503158C433.5 0.503158 427.5 7.00316 418 7.00316C408.5 7.00316 406.5 0.503158 398 0.503158C389.5 0.503158 375.5 7.00316 360.5 7.00316C345.5 7.00316 348.5 0.503158 338.5 0.503158C328.5 0.503158 324 7.00316 316 7.00316C308 7.00316 308.5 0.503158 300 0.503158C291.5 0.503158 289 7.00316 282.5 7.00316C276 7.00316 276 0.503158 270.5 0.503158C265 0.503158 259.5 7.00316 254.5 7.00316C249.5 7.00316 249.5 0.503158 244.5 0.503158C239.5 0.503158 233 8.50318 226.5 8.50318C220 8.50318 221 0.503158 213.5 0.503158C206 0.503158 204 7.00316 196 7.00316C188 7.00316 188 0.503158 180.5 0.503158C173 0.503158 167 5.50318 156.5 5.50318C146 5.50318 149.5 0.503158 141.5 0.503158C133.5 0.503158 123 7.00316 108.5 7.00316C94 7.00316 100.5 0.503158 91.5 0.503158C82.5 0.503158 78 7.00316 67.5 7.00316C57 7.00316 61.5 0.503158 52.5 0.503158C43.5 0.503158 35 7.00316 23 7.00316C11 7.00316 12.5 0.503158 0 0.503158" stroke="#FFCE21" stroke-width="0.5"/>
</svg>
