<svg width="63" height="11" viewBox="0 0 63 11" fill="none" xmlns="http://www.w3.org/2000/svg">
<path d="M4.916 8.424L0.44 5.388V4.644L4.916 1.608V2.556L1.304 4.992V5.04L4.916 7.476V8.424ZM9.79531 9.144C9.28331 9.144 8.80731 9.024 8.36731 8.784C7.93531 8.544 7.58331 8.196 7.31131 7.74C7.04731 7.284 6.91531 6.736 6.91531 6.096C6.91531 5.44 7.04731 4.884 7.31131 4.428C7.58331 3.972 7.93531 3.624 8.36731 3.384C8.80731 3.144 9.28331 3.024 9.79531 3.024C10.3073 3.024 10.7793 3.144 11.2113 3.384C11.6513 3.624 12.0033 3.972 12.2673 4.428C12.5393 4.884 12.6753 5.44 12.6753 6.096C12.6753 6.736 12.5393 7.284 12.2673 7.74C12.0033 8.196 11.6513 8.544 11.2113 8.784C10.7793 9.024 10.3073 9.144 9.79531 9.144ZM9.79531 8.328C10.1713 8.328 10.4993 8.236 10.7793 8.052C11.0593 7.86 11.2753 7.596 11.4273 7.26C11.5793 6.924 11.6553 6.536 11.6553 6.096C11.6553 5.648 11.5793 5.256 11.4273 4.92C11.2753 4.576 11.0593 4.312 10.7793 4.128C10.4993 3.936 10.1713 3.84 9.79531 3.84C9.41931 3.84 9.09131 3.936 8.81131 4.128C8.53931 4.312 8.32331 4.576 8.16331 4.92C8.01131 5.256 7.93531 5.648 7.93531 6.096C7.93531 6.536 8.01131 6.924 8.16331 7.26C8.32331 7.596 8.53931 7.86 8.81131 8.052C9.09131 8.236 9.41931 8.328 9.79531 8.328ZM17.1106 9.144C16.5426 9.144 16.0106 9.052 15.5146 8.868C15.0186 8.684 14.5946 8.472 14.2426 8.232L14.6986 7.584C15.0346 7.824 15.4066 8.016 15.8146 8.16C16.2226 8.304 16.6946 8.376 17.2306 8.376C17.7266 8.376 18.0946 8.284 18.3346 8.1C18.5826 7.916 18.7066 7.704 18.7066 7.464C18.7066 7.352 18.6826 7.248 18.6346 7.152C18.5946 7.056 18.5106 6.964 18.3826 6.876C18.2626 6.788 18.0826 6.704 17.8426 6.624C17.6026 6.544 17.2826 6.464 16.8826 6.384C16.1226 6.224 15.5506 6.008 15.1666 5.736C14.7906 5.464 14.6026 5.112 14.6026 4.68C14.6026 4.208 14.8066 3.816 15.2146 3.504C15.6226 3.184 16.2266 3.024 17.0266 3.024C17.4746 3.024 17.9066 3.1 18.3226 3.252C18.7386 3.396 19.0906 3.568 19.3786 3.768L18.8986 4.404C18.6346 4.212 18.3346 4.064 17.9986 3.96C17.6626 3.848 17.3106 3.792 16.9426 3.792C16.6066 3.792 16.3386 3.832 16.1386 3.912C15.9466 3.984 15.8066 4.084 15.7186 4.212C15.6386 4.34 15.5986 4.48 15.5986 4.632C15.5986 4.88 15.7306 5.076 15.9946 5.22C16.2666 5.356 16.6986 5.484 17.2906 5.604C17.9386 5.74 18.4346 5.892 18.7786 6.06C19.1306 6.228 19.3706 6.42 19.4986 6.636C19.6346 6.852 19.7026 7.108 19.7026 7.404C19.7026 7.724 19.6026 8.016 19.4026 8.28C19.2026 8.536 18.9106 8.744 18.5266 8.904C18.1426 9.064 17.6706 9.144 17.1106 9.144ZM21.8579 9V0.456H22.8419V6.24H22.8899L26.0339 3.168H27.1619L22.8419 7.416V9H21.8579ZM26.3699 9L24.0899 5.892L24.6899 5.256L27.4739 9H26.3699ZM30.7333 9.144C30.3733 9.144 30.0413 9.08 29.7373 8.952C29.4333 8.816 29.1933 8.624 29.0173 8.376C28.8413 8.128 28.7533 7.832 28.7533 7.488C28.7533 6.832 29.0813 6.336 29.7373 6C30.3933 5.656 31.4733 5.424 32.9773 5.304C32.9693 5.04 32.9133 4.796 32.8093 4.572C32.7133 4.348 32.5533 4.172 32.3293 4.044C32.1053 3.908 31.8053 3.84 31.4293 3.84C31.1813 3.84 30.9333 3.876 30.6853 3.948C30.4453 4.012 30.2133 4.1 29.9893 4.212C29.7733 4.316 29.5733 4.424 29.3893 4.536L29.0053 3.864C29.1973 3.736 29.4293 3.608 29.7013 3.48C29.9813 3.344 30.2813 3.236 30.6013 3.156C30.9213 3.068 31.2533 3.024 31.5973 3.024C32.1333 3.024 32.5733 3.124 32.9173 3.324C33.2693 3.524 33.5293 3.804 33.6973 4.164C33.8733 4.516 33.9613 4.936 33.9613 5.424V9H33.1573L33.0733 8.208H33.0373C32.7173 8.464 32.3573 8.684 31.9573 8.868C31.5573 9.052 31.1493 9.144 30.7333 9.144ZM30.9973 8.352C31.3333 8.352 31.6653 8.276 31.9933 8.124C32.3213 7.972 32.6493 7.76 32.9773 7.488V5.952C32.1453 6.024 31.4893 6.124 31.0093 6.252C30.5373 6.38 30.2013 6.544 30.0013 6.744C29.8093 6.936 29.7133 7.16 29.7133 7.416C29.7133 7.632 29.7733 7.812 29.8933 7.956C30.0133 8.092 30.1693 8.192 30.3613 8.256C30.5613 8.32 30.7733 8.352 30.9973 8.352ZM36.7286 9V3.168H37.5446L37.6286 4.548H37.6646C37.9686 4.076 38.3446 3.704 38.7926 3.432C39.2406 3.16 39.7326 3.024 40.2686 3.024C40.4846 3.024 40.6846 3.044 40.8686 3.084C41.0606 3.116 41.2446 3.176 41.4206 3.264L41.1926 4.116C40.9926 4.044 40.8206 3.992 40.6766 3.96C40.5326 3.928 40.3446 3.912 40.1126 3.912C39.6726 3.912 39.2486 4.04 38.8406 4.296C38.4406 4.544 38.0646 4.972 37.7126 5.58V9H36.7286ZM50.5552 10.92L54.4912 0.48H55.3792L51.4432 10.92H50.5552ZM57.8465 8.424V7.476L61.4585 5.04V4.992L57.8465 2.556V1.608L62.3225 4.644V5.388L57.8465 8.424Z" fill="#FFCE21"/>
</svg>
