<?xml version="1.0" encoding="UTF-8"?><svg id="Layer_1" xmlns="http://www.w3.org/2000/svg" viewBox="0 0 561.69 157.63"><defs><style>.cls-1{fill:#ffd021;}.cls-2{fill:#ffcf21;}.cls-3{fill:#b074b1;}.cls-4{fill:#c66;}.cls-5{fill:#a1c3de;}</style></defs><path class="cls-3" d="M10.85,35.14V15.02H0v-3.22H14.78v23.33h-3.94Zm1.54-28.22c-.9,0-1.65-.28-2.26-.84-.61-.56-.91-1.3-.91-2.23s.3-1.67,.91-2.23c.61-.56,1.36-.84,2.26-.84s1.65,.28,2.26,.84c.61,.56,.91,1.3,.91,2.23s-.3,1.67-.91,2.23c-.61,.56-1.36,.84-2.26,.84Z"/><path class="cls-3" d="M36.1,35.14V15.02h-6.67v-2.98l6.67-.24v-1.97c0-2.85,.77-5.14,2.3-6.86s3.9-2.59,7.1-2.59c2.3,0,4.54,.45,6.72,1.34l-.91,2.98c-.96-.45-1.85-.74-2.66-.89s-1.74-.22-2.76-.22c-2.08,0-3.58,.54-4.51,1.63-.93,1.09-1.39,2.58-1.39,4.46v2.11h9.79v3.22h-9.79v20.11h-3.89Z"/><path class="cls-2" d="M74.06,43.58c-3.33-2.59-5.96-5.71-7.9-9.36-1.94-3.65-2.9-7.79-2.9-12.43s.97-8.78,2.9-12.43,4.57-6.77,7.9-9.36l2.16,2.02c-3.2,2.72-5.57,5.69-7.1,8.9-1.54,3.22-2.3,6.84-2.3,10.87s.77,7.66,2.3,10.87c1.54,3.22,3.9,6.18,7.1,8.9l-2.16,2.02Z"/><path class="cls-4" d="M86.54,35.14V.96h3.94V10.27l-.24,5.52h.14c1.22-1.31,2.52-2.4,3.91-3.26,1.39-.86,3-1.3,4.82-1.3,2.75,0,4.78,.8,6.1,2.4,1.31,1.6,1.97,3.94,1.97,7.01v14.5h-3.94v-13.97c0-2.21-.42-3.85-1.25-4.92-.83-1.07-2.21-1.61-4.13-1.61-1.38,0-2.61,.35-3.7,1.06-1.09,.7-2.32,1.76-3.7,3.17v16.27h-3.94Z"/><path class="cls-4" d="M126.05,35.14V15.02h-10.85v-3.22h14.78v23.33h-3.94Zm1.54-28.22c-.9,0-1.65-.28-2.26-.84-.61-.56-.91-1.3-.91-2.23s.3-1.67,.91-2.23c.61-.56,1.36-.84,2.26-.84s1.65,.28,2.26,.84c.61,.56,.91,1.3,.91,2.23s-.3,1.67-.91,2.23c-.61,.56-1.36,.84-2.26,.84Z"/><path class="cls-4" d="M146.69,35.14V11.81h3.26l.34,5.52h.14c1.22-1.89,2.72-3.38,4.51-4.46,1.79-1.09,3.76-1.63,5.9-1.63,.86,0,1.67,.07,2.42,.22s1.48,.39,2.18,.74l-.91,3.41c-.8-.29-1.49-.5-2.06-.62-.58-.13-1.33-.19-2.26-.19-1.76,0-3.45,.5-5.06,1.51-1.62,1.01-3.13,2.73-4.54,5.16v13.68h-3.94Z"/><path class="cls-4" d="M184.32,35.71c-2.34,0-4.46-.48-6.36-1.44-1.9-.96-3.42-2.36-4.54-4.2-1.12-1.84-1.68-4.06-1.68-6.65s.56-4.7,1.68-6.53c1.12-1.82,2.58-3.22,4.39-4.2,1.81-.98,3.75-1.46,5.83-1.46,3.36,0,5.98,1,7.85,3,1.87,2,2.81,4.65,2.81,7.94,0,.45-.02,.88-.05,1.3-.03,.42-.08,.78-.14,1.1h-18.38c.26,2.62,1.22,4.61,2.9,5.95,1.68,1.34,3.74,2.02,6.17,2.02,1.41,0,2.68-.2,3.82-.6,1.14-.4,2.23-.94,3.29-1.61l1.44,2.59c-1.15,.77-2.47,1.42-3.96,1.97-1.49,.54-3.18,.82-5.06,.82Zm-.58-21.36c-1.92,0-3.63,.62-5.14,1.85-1.5,1.23-2.43,3-2.78,5.3h14.88c-.16-2.4-.86-4.19-2.11-5.38-1.25-1.18-2.86-1.78-4.85-1.78Z"/><path class="cls-4" d="M211.68,35.71c-2.37,0-4.46-.66-6.29-1.97-1.82-1.31-3.25-3.19-4.27-5.64-1.02-2.45-1.54-5.4-1.54-8.86s.51-6.3,1.54-8.71c1.02-2.42,2.45-4.26,4.27-5.54,1.82-1.28,3.92-1.92,6.29-1.92s4.46,.64,6.29,1.92c1.82,1.28,3.25,3.13,4.27,5.54,1.02,2.42,1.54,5.32,1.54,8.71s-.51,6.41-1.54,8.86c-1.02,2.45-2.45,4.33-4.27,5.64-1.82,1.31-3.92,1.97-6.29,1.97Zm0-3.5c2.4,0,4.33-1.15,5.78-3.46,1.46-2.3,2.18-5.47,2.18-9.5s-.73-7.07-2.18-9.31c-1.46-2.24-3.38-3.36-5.78-3.36s-4.33,1.12-5.78,3.36c-1.46,2.24-2.18,5.34-2.18,9.31s.73,7.2,2.18,9.5c1.46,2.3,3.38,3.46,5.78,3.46Z"/><path class="cls-4" d="M240.96,35.71c-2.27,0-4.4-.36-6.38-1.08-1.98-.72-3.68-1.58-5.09-2.57l1.82-2.59c1.34,.96,2.83,1.73,4.46,2.3,1.63,.58,3.52,.86,5.66,.86,1.98,0,3.46-.36,4.44-1.08,.98-.72,1.46-1.58,1.46-2.57,0-.61-.17-1.15-.5-1.63s-1.02-.94-2.06-1.39c-1.04-.45-2.62-.88-4.73-1.3-3.01-.64-5.28-1.5-6.82-2.57-1.54-1.07-2.3-2.49-2.3-4.25,0-1.89,.82-3.46,2.45-4.73s4.05-1.9,7.25-1.9c1.79,0,3.52,.3,5.18,.89,1.66,.59,3.07,1.29,4.22,2.09l-1.92,2.54c-1.09-.74-2.29-1.33-3.6-1.78-1.31-.45-2.72-.67-4.22-.67-1.98,0-3.38,.34-4.18,1.01-.8,.67-1.2,1.46-1.2,2.35,0,.99,.54,1.76,1.61,2.3,1.07,.54,2.79,1.07,5.16,1.58,2.59,.54,4.58,1.15,5.98,1.82,1.39,.67,2.35,1.44,2.88,2.3,.53,.86,.79,1.89,.79,3.07,0,1.25-.4,2.4-1.2,3.46-.8,1.06-1.97,1.9-3.5,2.54-1.54,.64-3.42,.96-5.66,.96Z"/><path class="cls-4" d="M259.96,35.14V.96h3.94V24.1h.19l12.58-12.29h4.51l-9.31,9.17,10.56,14.16h-4.42l-8.59-11.76-5.52,5.42v6.34h-3.94Z"/><path class="cls-4" d="M295.48,35.71c-1.44,0-2.76-.26-3.96-.79-1.2-.53-2.16-1.29-2.88-2.28-.72-.99-1.08-2.18-1.08-3.55,0-1.76,.57-3.22,1.7-4.39,1.14-1.17,2.95-2.1,5.45-2.81,2.5-.7,5.74-1.22,9.74-1.54-.03-1.06-.25-2.02-.65-2.9-.4-.88-1.05-1.59-1.94-2.14-.9-.54-2.1-.82-3.6-.82s-2.97,.3-4.39,.89c-1.42,.59-2.68,1.22-3.77,1.9l-1.54-2.69c1.18-.77,2.7-1.52,4.54-2.26,1.84-.74,3.78-1.1,5.83-1.1,3.2,0,5.58,.87,7.13,2.62,1.55,1.74,2.33,4.07,2.33,6.98v14.3h-3.22l-.34-3.17h-.14c-1.28,.99-2.72,1.86-4.32,2.62-1.6,.75-3.23,1.13-4.9,1.13Zm1.06-3.17c1.31,0,2.63-.3,3.96-.91,1.33-.61,2.65-1.46,3.96-2.54v-6.14c-3.33,.26-5.94,.65-7.85,1.18-1.9,.53-3.25,1.18-4.03,1.97-.79,.78-1.18,1.69-1.18,2.71,0,1.31,.52,2.26,1.56,2.86,1.04,.59,2.23,.89,3.58,.89Z"/><path class="cls-4" d="M319.48,35.14V11.81h3.26l.34,5.52h.14c1.22-1.89,2.72-3.38,4.51-4.46,1.79-1.09,3.76-1.63,5.9-1.63,.86,0,1.67,.07,2.42,.22s1.48,.39,2.18,.74l-.91,3.41c-.8-.29-1.49-.5-2.06-.62-.58-.13-1.33-.19-2.26-.19-1.76,0-3.45,.5-5.06,1.51-1.62,1.01-3.13,2.73-4.54,5.16v13.68h-3.94Z"/><path class="cls-2" d="M349.29,43.58l-2.16-2.02c3.23-2.72,5.61-5.69,7.13-8.9,1.52-3.22,2.28-6.84,2.28-10.87s-.76-7.66-2.28-10.87c-1.52-3.22-3.9-6.18-7.13-8.9l2.16-2.02c3.33,2.59,5.96,5.71,7.9,9.36,1.94,3.65,2.9,7.79,2.9,12.43s-.97,8.78-2.9,12.43c-1.94,3.65-4.57,6.77-7.9,9.36Z"/><path class="cls-1" d="M391.24,42.43c-3.01,0-5.24-.45-6.7-1.34-1.46-.9-2.18-2.58-2.18-5.04,0-1.76,.07-3.34,.22-4.75,.14-1.41,.22-2.91,.22-4.51,0-.64-.18-1.24-.55-1.8-.37-.56-1.06-1.02-2.06-1.39-1.01-.37-2.46-.55-4.34-.55v-2.5c1.89-.03,3.34-.22,4.34-.58,1.01-.35,1.7-.82,2.06-1.39,.37-.58,.55-1.17,.55-1.78,0-1.5-.07-3.01-.22-4.51-.14-1.5-.22-3.09-.22-4.75,0-2.46,.73-4.14,2.18-5.04,1.46-.9,3.69-1.34,6.7-1.34h2.93V3.41h-2.5c-1.63,0-2.88,.14-3.74,.43-.86,.29-1.45,.75-1.75,1.39-.3,.64-.46,1.49-.46,2.54,0,1.38,.05,2.79,.14,4.25,.1,1.46,.14,2.94,.14,4.44s-.31,2.76-.94,3.58c-.62,.82-1.77,1.37-3.43,1.66v.19c1.66,.29,2.81,.84,3.43,1.66,.62,.82,.94,2.01,.94,3.58s-.05,3.12-.14,4.46c-.1,1.34-.14,2.75-.14,4.22,0,1.02,.15,1.86,.46,2.52,.3,.66,.89,1.13,1.75,1.42,.86,.29,2.11,.43,3.74,.43h2.5v2.26h-2.93Z"/><path class="cls-5" d="M96.29,103.49c-3.39,0-6.03-.57-7.92-1.7-1.89-1.14-2.83-2.73-2.83-4.78s1.28-3.71,3.84-5.18v-.19c-.61-.35-1.16-.83-1.66-1.44-.5-.61-.74-1.41-.74-2.4,0-.74,.24-1.5,.72-2.28,.48-.78,1.17-1.48,2.06-2.09v-.19c-.8-.61-1.48-1.42-2.04-2.45-.56-1.02-.84-2.22-.84-3.6,0-1.7,.42-3.17,1.27-4.42,.85-1.25,1.97-2.22,3.36-2.9,1.39-.69,2.9-1.03,4.54-1.03,1.31,0,2.46,.19,3.46,.58h9.65v3.22h-6.05c.54,.54,1.01,1.23,1.39,2.06s.58,1.71,.58,2.64c0,1.66-.4,3.1-1.2,4.3-.8,1.2-1.88,2.12-3.24,2.76-1.36,.64-2.89,.96-4.58,.96-.61,0-1.26-.07-1.94-.22-.69-.14-1.35-.36-1.99-.65-.58,.35-1.02,.75-1.34,1.2-.32,.45-.48,.94-.48,1.49,0,.9,.42,1.57,1.27,2.02,.85,.45,2.04,.67,3.58,.67h5.23c3.01,0,5.24,.42,6.7,1.25,1.46,.83,2.18,2.24,2.18,4.22,0,1.44-.53,2.78-1.58,4.03s-2.55,2.25-4.49,3-4.23,1.13-6.89,1.13Zm.29-2.88c2.72,0,4.86-.48,6.43-1.44,1.57-.96,2.35-2.03,2.35-3.22,0-1.12-.44-1.87-1.32-2.26-.88-.38-2.22-.58-4.01-.58h-4.56c-.67,0-1.3-.03-1.9-.1-.59-.06-1.14-.16-1.66-.29-1.09,.61-1.86,1.24-2.3,1.9-.45,.66-.67,1.32-.67,1.99,0,1.22,.65,2.18,1.94,2.9s3.19,1.08,5.69,1.08Zm-.53-17.9c1.5,0,2.78-.5,3.82-1.51,1.04-1.01,1.56-2.34,1.56-4.01s-.52-2.95-1.56-3.96c-1.04-1.01-2.31-1.51-3.82-1.51s-2.74,.5-3.79,1.51c-1.06,1.01-1.58,2.33-1.58,3.96s.53,3,1.58,4.01c1.06,1.01,2.32,1.51,3.79,1.51Z"/><path class="cls-5" d="M126.72,93.31c-2.34,0-4.46-.48-6.36-1.44-1.9-.96-3.42-2.36-4.54-4.2-1.12-1.84-1.68-4.06-1.68-6.65s.56-4.7,1.68-6.53c1.12-1.82,2.58-3.22,4.39-4.2,1.81-.98,3.75-1.46,5.83-1.46,3.36,0,5.98,1,7.85,3,1.87,2,2.81,4.65,2.81,7.94,0,.45-.02,.88-.05,1.3-.03,.42-.08,.78-.14,1.1h-18.38c.26,2.62,1.22,4.61,2.9,5.95,1.68,1.34,3.74,2.02,6.17,2.02,1.41,0,2.68-.2,3.82-.6,1.14-.4,2.23-.94,3.29-1.61l1.44,2.59c-1.15,.77-2.47,1.42-3.96,1.97-1.49,.54-3.18,.82-5.06,.82Zm-.58-21.36c-1.92,0-3.63,.62-5.14,1.85-1.5,1.23-2.43,3-2.78,5.3h14.88c-.16-2.4-.86-4.19-2.11-5.38s-2.86-1.78-4.85-1.78Z"/><path class="cls-5" d="M158.59,93.31c-2.27,0-4.06-.41-5.38-1.22-1.31-.82-2.25-1.94-2.81-3.38-.56-1.44-.84-3.12-.84-5.04v-11.04h-6.58v-2.98l6.72-.24,.53-7.49h3.26v7.49h11.47v3.22h-11.47v11.09c0,2.08,.42,3.67,1.27,4.75,.85,1.09,2.39,1.63,4.63,1.63,1.12,0,2.13-.1,3.02-.29,.9-.19,1.76-.45,2.59-.77l.86,2.88c-1.06,.38-2.17,.71-3.34,.98-1.17,.27-2.49,.41-3.96,.41Z"/><path class="cls-5" d="M184.65,93.31c-2.62,0-4.97-.65-7.03-1.94-2.06-1.3-3.68-3.16-4.85-5.59-1.17-2.43-1.75-5.36-1.75-8.78s.6-6.3,1.8-8.74c1.2-2.43,2.85-4.3,4.94-5.62,2.1-1.31,4.5-1.97,7.22-1.97,2.08,0,3.82,.41,5.23,1.22,1.41,.82,2.56,1.69,3.46,2.62l-2.26,2.54c-.77-.83-1.66-1.52-2.66-2.06-1.01-.54-2.26-.82-3.77-.82-1.95,0-3.66,.52-5.14,1.56-1.47,1.04-2.62,2.5-3.43,4.39-.82,1.89-1.22,4.14-1.22,6.77,0,3.97,.84,7.11,2.52,9.43,1.68,2.32,4.07,3.48,7.18,3.48,2.34,0,4.16-.62,5.47-1.87v-8.21h-6.29v-3.31h9.98v13.25c-.99,.99-2.3,1.85-3.91,2.57-1.62,.72-3.45,1.08-5.5,1.08Z"/><path class="cls-5" d="M204.28,92.74v-23.33h3.26l.34,5.52h.14c1.22-1.89,2.72-3.38,4.51-4.46,1.79-1.09,3.76-1.63,5.9-1.63,.86,0,1.67,.07,2.42,.22,.75,.14,1.48,.39,2.18,.74l-.91,3.41c-.8-.29-1.49-.5-2.06-.62-.58-.13-1.33-.19-2.26-.19-1.76,0-3.45,.5-5.06,1.51-1.62,1.01-3.13,2.73-4.54,5.16v13.68h-3.94Z"/><path class="cls-5" d="M241.92,93.31c-2.34,0-4.46-.48-6.36-1.44-1.9-.96-3.42-2.36-4.54-4.2-1.12-1.84-1.68-4.06-1.68-6.65s.56-4.7,1.68-6.53c1.12-1.82,2.58-3.22,4.39-4.2,1.81-.98,3.75-1.46,5.83-1.46,3.36,0,5.98,1,7.85,3,1.87,2,2.81,4.65,2.81,7.94,0,.45-.02,.88-.05,1.3-.03,.42-.08,.78-.14,1.1h-18.38c.26,2.62,1.22,4.61,2.9,5.95,1.68,1.34,3.74,2.02,6.17,2.02,1.41,0,2.68-.2,3.82-.6,1.14-.4,2.23-.94,3.29-1.61l1.44,2.59c-1.15,.77-2.47,1.42-3.96,1.97-1.49,.54-3.18,.82-5.06,.82Zm-.58-21.36c-1.92,0-3.63,.62-5.14,1.85-1.5,1.23-2.43,3-2.78,5.3h14.88c-.16-2.4-.86-4.19-2.11-5.38s-2.86-1.78-4.85-1.78Z"/><path class="cls-5" d="M266.68,93.31c-1.44,0-2.76-.26-3.96-.79-1.2-.53-2.16-1.29-2.88-2.28-.72-.99-1.08-2.18-1.08-3.55,0-1.76,.57-3.22,1.7-4.39,1.14-1.17,2.95-2.1,5.45-2.81,2.5-.7,5.74-1.22,9.74-1.54-.03-1.06-.25-2.02-.65-2.9-.4-.88-1.05-1.59-1.94-2.14-.9-.54-2.1-.82-3.6-.82s-2.97,.3-4.39,.89c-1.42,.59-2.68,1.22-3.77,1.9l-1.54-2.69c1.18-.77,2.7-1.52,4.54-2.26s3.78-1.1,5.83-1.1c3.2,0,5.58,.87,7.13,2.62s2.33,4.07,2.33,6.98v14.3h-3.22l-.34-3.17h-.14c-1.28,.99-2.72,1.86-4.32,2.62-1.6,.75-3.23,1.13-4.9,1.13Zm1.06-3.17c1.31,0,2.63-.3,3.96-.91,1.33-.61,2.65-1.46,3.96-2.54v-6.14c-3.33,.26-5.94,.65-7.85,1.18-1.9,.53-3.25,1.18-4.03,1.97-.79,.78-1.18,1.69-1.18,2.71,0,1.31,.52,2.26,1.56,2.86,1.04,.59,2.23,.89,3.58,.89Z"/><path class="cls-5" d="M302.59,93.31c-2.27,0-4.06-.41-5.38-1.22-1.31-.82-2.25-1.94-2.81-3.38-.56-1.44-.84-3.12-.84-5.04v-11.04h-6.58v-2.98l6.72-.24,.53-7.49h3.26v7.49h11.47v3.22h-11.47v11.09c0,2.08,.42,3.67,1.27,4.75,.85,1.09,2.39,1.63,4.63,1.63,1.12,0,2.13-.1,3.02-.29,.9-.19,1.76-.45,2.59-.77l.86,2.88c-1.06,.38-2.17,.71-3.34,.98-1.17,.27-2.49,.41-3.96,.41Z"/><path class="cls-5" d="M327.11,93.31c-2.3,0-4.43-.42-6.38-1.27-1.95-.85-3.63-1.98-5.04-3.38l2.4-2.78c1.18,1.18,2.57,2.14,4.15,2.86s3.27,1.08,5.06,1.08c2.18,0,3.86-.46,5.06-1.39,1.2-.93,1.8-2.13,1.8-3.6,0-1.12-.25-2.02-.74-2.69-.5-.67-1.17-1.23-2.02-1.68-.85-.45-1.82-.9-2.9-1.34l-4.51-1.97c-1.06-.42-2.1-.96-3.14-1.63-1.04-.67-1.91-1.54-2.62-2.59-.7-1.06-1.06-2.35-1.06-3.89s.44-3.03,1.32-4.3c.88-1.26,2.09-2.26,3.65-2.98,1.55-.72,3.34-1.08,5.35-1.08s3.81,.36,5.47,1.08c1.66,.72,3.07,1.66,4.22,2.81l-2.11,2.59c-1.02-.93-2.16-1.66-3.41-2.18-1.25-.53-2.69-.79-4.32-.79-1.82,0-3.3,.42-4.42,1.25s-1.68,1.95-1.68,3.36c0,.99,.28,1.81,.84,2.45,.56,.64,1.27,1.17,2.14,1.58,.86,.42,1.74,.82,2.64,1.2l4.42,1.92c1.31,.51,2.49,1.13,3.53,1.85s1.87,1.6,2.5,2.64,.94,2.34,.94,3.91c0,1.67-.45,3.18-1.34,4.54-.9,1.36-2.18,2.44-3.84,3.24s-3.65,1.2-5.95,1.2Z"/><path class="cls-5" d="M353.08,93.31c-2.78,0-4.83-.8-6.14-2.4-1.31-1.6-1.97-3.94-1.97-7.01v-14.5h3.98v13.97c0,2.21,.41,3.85,1.22,4.92,.82,1.07,2.2,1.61,4.15,1.61,1.34,0,2.57-.34,3.67-1.03,1.1-.69,2.3-1.78,3.58-3.29v-16.18h3.94v23.33h-3.22l-.34-4.08h-.19c-1.18,1.38-2.48,2.5-3.89,3.36-1.41,.86-3.01,1.3-4.8,1.3Z"/><path class="cls-5" d="M386.68,93.31c-2.43,0-4.61-.48-6.53-1.44s-3.44-2.35-4.56-4.18-1.68-4.02-1.68-6.58,.59-4.85,1.78-6.67c1.18-1.82,2.77-3.22,4.75-4.18,1.98-.96,4.14-1.44,6.48-1.44,1.89,0,3.54,.34,4.94,1.01,1.41,.67,2.59,1.47,3.55,2.4l-1.97,2.54c-.96-.83-1.96-1.49-3-1.97-1.04-.48-2.17-.72-3.38-.72-1.79,0-3.37,.38-4.73,1.13s-2.42,1.81-3.19,3.17c-.77,1.36-1.15,2.94-1.15,4.73s.38,3.31,1.13,4.66,1.8,2.39,3.14,3.14c1.34,.75,2.91,1.13,4.7,1.13,1.44,0,2.76-.29,3.96-.86,1.2-.58,2.28-1.26,3.24-2.06l1.78,2.54c-1.28,1.15-2.71,2.05-4.3,2.69s-3.24,.96-4.97,.96Z"/><path class="cls-5" d="M415.48,93.31c-2.43,0-4.61-.48-6.53-1.44s-3.44-2.35-4.56-4.18-1.68-4.02-1.68-6.58,.59-4.85,1.78-6.67c1.18-1.82,2.77-3.22,4.75-4.18,1.98-.96,4.14-1.44,6.48-1.44,1.89,0,3.54,.34,4.94,1.01,1.41,.67,2.59,1.47,3.55,2.4l-1.97,2.54c-.96-.83-1.96-1.49-3-1.97-1.04-.48-2.17-.72-3.38-.72-1.79,0-3.37,.38-4.73,1.13s-2.42,1.81-3.19,3.17c-.77,1.36-1.15,2.94-1.15,4.73s.38,3.31,1.13,4.66,1.8,2.39,3.14,3.14c1.34,.75,2.91,1.13,4.7,1.13,1.44,0,2.76-.29,3.96-.86,1.2-.58,2.28-1.26,3.24-2.06l1.78,2.54c-1.28,1.15-2.71,2.05-4.3,2.69s-3.24,.96-4.97,.96Z"/><path class="cls-5" d="M443.51,93.31c-2.34,0-4.46-.48-6.36-1.44-1.9-.96-3.42-2.36-4.54-4.2-1.12-1.84-1.68-4.06-1.68-6.65s.56-4.7,1.68-6.53c1.12-1.82,2.58-3.22,4.39-4.2,1.81-.98,3.75-1.46,5.83-1.46,3.36,0,5.98,1,7.85,3,1.87,2,2.81,4.65,2.81,7.94,0,.45-.02,.88-.05,1.3-.03,.42-.08,.78-.14,1.1h-18.38c.26,2.62,1.22,4.61,2.9,5.95,1.68,1.34,3.74,2.02,6.17,2.02,1.41,0,2.68-.2,3.82-.6,1.14-.4,2.23-.94,3.29-1.61l1.44,2.59c-1.15,.77-2.47,1.42-3.96,1.97-1.49,.54-3.18,.82-5.06,.82Zm-.58-21.36c-1.92,0-3.63,.62-5.14,1.85-1.5,1.23-2.43,3-2.78,5.3h14.88c-.16-2.4-.86-4.19-2.11-5.38s-2.86-1.78-4.85-1.78Z"/><path class="cls-5" d="M471.35,93.31c-2.27,0-4.4-.36-6.38-1.08-1.98-.72-3.68-1.58-5.09-2.57l1.82-2.59c1.34,.96,2.83,1.73,4.46,2.3,1.63,.58,3.52,.86,5.66,.86,1.98,0,3.46-.36,4.44-1.08,.98-.72,1.46-1.58,1.46-2.57,0-.61-.17-1.15-.5-1.63-.34-.48-1.02-.94-2.06-1.39-1.04-.45-2.62-.88-4.73-1.3-3.01-.64-5.28-1.5-6.82-2.57-1.54-1.07-2.3-2.49-2.3-4.25,0-1.89,.82-3.46,2.45-4.73,1.63-1.26,4.05-1.9,7.25-1.9,1.79,0,3.52,.3,5.18,.89s3.07,1.29,4.22,2.09l-1.92,2.54c-1.09-.74-2.29-1.33-3.6-1.78-1.31-.45-2.72-.67-4.22-.67-1.98,0-3.38,.34-4.18,1.01-.8,.67-1.2,1.46-1.2,2.35,0,.99,.54,1.76,1.61,2.3,1.07,.54,2.79,1.07,5.16,1.58,2.59,.54,4.58,1.15,5.98,1.82,1.39,.67,2.35,1.44,2.88,2.3s.79,1.89,.79,3.07c0,1.25-.4,2.4-1.2,3.46-.8,1.06-1.97,1.9-3.5,2.54s-3.42,.96-5.66,.96Z"/><path class="cls-5" d="M500.15,93.31c-2.27,0-4.4-.36-6.38-1.08-1.98-.72-3.68-1.58-5.09-2.57l1.82-2.59c1.34,.96,2.83,1.73,4.46,2.3,1.63,.58,3.52,.86,5.66,.86,1.98,0,3.46-.36,4.44-1.08,.98-.72,1.46-1.58,1.46-2.57,0-.61-.17-1.15-.5-1.63-.34-.48-1.02-.94-2.06-1.39-1.04-.45-2.62-.88-4.73-1.3-3.01-.64-5.28-1.5-6.82-2.57-1.54-1.07-2.3-2.49-2.3-4.25,0-1.89,.82-3.46,2.45-4.73,1.63-1.26,4.05-1.9,7.25-1.9,1.79,0,3.52,.3,5.18,.89s3.07,1.29,4.22,2.09l-1.92,2.54c-1.09-.74-2.29-1.33-3.6-1.78-1.31-.45-2.72-.67-4.22-.67-1.98,0-3.38,.34-4.18,1.01-.8,.67-1.2,1.46-1.2,2.35,0,.99,.54,1.76,1.61,2.3,1.07,.54,2.79,1.07,5.16,1.58,2.59,.54,4.58,1.15,5.98,1.82,1.39,.67,2.35,1.44,2.88,2.3s.79,1.89,.79,3.07c0,1.25-.4,2.4-1.2,3.46-.8,1.06-1.97,1.9-3.5,2.54s-3.42,.96-5.66,.96Z"/><path class="cls-3" d="M534.86,101.18c-3.33-2.59-5.96-5.71-7.9-9.36-1.94-3.65-2.9-7.79-2.9-12.43s.97-8.78,2.9-12.43c1.94-3.65,4.57-6.77,7.9-9.36l2.16,2.02c-3.2,2.72-5.57,5.69-7.1,8.9s-2.3,6.84-2.3,10.87,.77,7.66,2.3,10.87c1.54,3.22,3.9,6.18,7.1,8.9l-2.16,2.02Z"/><path class="cls-3" d="M550.89,101.18l-2.16-2.02c3.23-2.72,5.61-5.69,7.13-8.9,1.52-3.22,2.28-6.84,2.28-10.87s-.76-7.66-2.28-10.87c-1.52-3.22-3.9-6.18-7.13-8.9l2.16-2.02c3.33,2.59,5.96,5.71,7.9,9.36,1.94,3.65,2.9,7.79,2.9,12.43s-.97,8.78-2.9,12.43c-1.94,3.65-4.57,6.77-7.9,9.36Z"/><path class="cls-1" d="M.43,157.63v-2.26H2.88c1.63,0,2.88-.14,3.74-.43,.86-.29,1.46-.76,1.78-1.42,.32-.66,.48-1.5,.48-2.52,0-1.47-.05-2.88-.14-4.22-.1-1.34-.14-2.83-.14-4.46s.3-2.76,.91-3.58c.61-.82,1.74-1.37,3.41-1.66v-.19c-1.67-.29-2.8-.84-3.41-1.66-.61-.82-.91-2.01-.91-3.58s.05-2.98,.14-4.44c.1-1.46,.14-2.87,.14-4.25,0-1.06-.16-1.9-.48-2.54-.32-.64-.91-1.1-1.78-1.39-.86-.29-2.11-.43-3.74-.43H.43v-2.26H3.36c3.01,0,5.23,.45,6.67,1.34,1.44,.9,2.16,2.58,2.16,5.04,0,1.66-.07,3.25-.22,4.75-.14,1.5-.22,3.01-.22,4.51,0,.61,.18,1.2,.55,1.78,.37,.58,1.06,1.04,2.06,1.39,1.01,.35,2.46,.54,4.34,.58v2.5c-1.89,0-3.34,.18-4.34,.55-1.01,.37-1.7,.83-2.06,1.39-.37,.56-.55,1.16-.55,1.8,0,1.6,.07,3.1,.22,4.51,.14,1.41,.22,2.99,.22,4.75,0,2.46-.72,4.14-2.16,5.04-1.44,.9-3.66,1.34-6.67,1.34H.43Z"/></svg>